<?xml version="1.0" encoding="UTF-8" standalone="no"?>
<!DOCTYPE svg PUBLIC "-//W3C//DTD SVG 1.1//EN"
 "http://www.w3.org/Graphics/SVG/1.1/DTD/svg11.dtd">
<!-- Generated by graphviz version 2.40.1 (20161225.0304)
 -->
<!-- Title: G Pages: 1 -->
<svg width="1088pt" height="892pt"
 viewBox="0.00 0.00 1087.88 892.00" xmlns="http://www.w3.org/2000/svg" xmlns:xlink="http://www.w3.org/1999/xlink">
<g id="graph0" class="graph" transform="scale(1 1) rotate(0) translate(4 888)">
<title>G</title>
<polygon fill="#ffffff" stroke="transparent" points="-4,4 -4,-888 1083.8807,-888 1083.8807,4 -4,4"/>
<g id="clust1" class="cluster">
<title>cluster_root</title>
<g id="a_clust1"><a xlink:title="eventq_index=0&#10;full_system=false&#10;sim_quantum=0&#10;time_sync_enable=false&#10;time_sync_period=100000000000&#10;time_sync_spin_threshold=100000000">
<path fill="#bab6ae" stroke="#000000" d="M20,-8C20,-8 1049,-8 1049,-8 1055,-8 1061,-14 1061,-20 1061,-20 1061,-864 1061,-864 1061,-870 1055,-876 1049,-876 1049,-876 20,-876 20,-876 14,-876 8,-870 8,-864 8,-864 8,-20 8,-20 8,-14 14,-8 20,-8"/>
<text text-anchor="middle" x="534.5" y="-860.8" font-family="Arial" font-size="14.00" fill="#000000">root </text>
<text text-anchor="middle" x="534.5" y="-845.8" font-family="Arial" font-size="14.00" fill="#000000">: Root</text>
</a>
</g>
</g>
<g id="clust2" class="cluster">
<title>cluster_system</title>
<g id="a_clust2"><a xlink:title="boot_osflags=a&#10;cache_line_size=64&#10;clk_domain=system.clk_domain&#10;default_p_state=UNDEFINED&#10;eventq_index=0&#10;exit_on_work_items=false&#10;init_param=0&#10;kernel=&#10;kernel_addr_check=true&#10;kernel_extras=&#10;kvm_vm=Null&#10;load_addr_mask=18446744073709551615&#10;load_offset=0&#10;mem_mode=timing&#10;mem_ranges=0:1073741823:0:0:0:0&#10;memories=system.mem_ctrls&#10;mmap_using_noreserve=false&#10;multi_thread=false&#10;num_work_ids=16&#10;p_state_clk_gate_bins=20&#10;p_state_clk_gate_max=1000000000000&#10;p_state_clk_gate_min=1000&#10;pim_kernerls=&#10;pim_type=default&#10;power_model=&#10;readfile=&#10;symbolfile=&#10;thermal_components=&#10;thermal_model=Null&#10;work_begin_ckpt_count=0&#10;work_begin_cpu_id_exit=&#45;1&#10;work_begin_exit_count=0&#10;work_cpus_ckpt_count=0&#10;work_end_ckpt_count=0&#10;work_end_exit_count=0&#10;work_item_id=&#45;1">
<path fill="#e4e7eb" stroke="#000000" d="M28,-16C28,-16 1041,-16 1041,-16 1047,-16 1053,-22 1053,-28 1053,-28 1053,-818 1053,-818 1053,-824 1047,-830 1041,-830 1041,-830 28,-830 28,-830 22,-830 16,-824 16,-818 16,-818 16,-28 16,-28 16,-22 22,-16 28,-16"/>
<text text-anchor="middle" x="534.5" y="-814.8" font-family="Arial" font-size="14.00" fill="#000000">system </text>
<text text-anchor="middle" x="534.5" y="-799.8" font-family="Arial" font-size="14.00" fill="#000000">: System</text>
</a>
</g>
</g>
<g id="clust3" class="cluster">
<title>cluster_system_membus</title>
<g id="a_clust3"><a xlink:title="clk_domain=system.clk_domain&#10;default_p_state=UNDEFINED&#10;eventq_index=0&#10;forward_latency=4&#10;frontend_latency=3&#10;p_state_clk_gate_bins=20&#10;p_state_clk_gate_max=1000000000000&#10;p_state_clk_gate_min=1000&#10;point_of_coherency=true&#10;point_of_unification=true&#10;power_model=&#10;response_latency=2&#10;snoop_filter=system.membus.snoop_filter&#10;snoop_response_latency=4&#10;system=system&#10;use_default_range=false&#10;width=16">
<path fill="#6f798c" stroke="#000000" d="M668,-608C668,-608 794,-608 794,-608 800,-608 806,-614 806,-620 806,-620 806,-687 806,-687 806,-693 800,-699 794,-699 794,-699 668,-699 668,-699 662,-699 656,-693 656,-687 656,-687 656,-620 656,-620 656,-614 662,-608 668,-608"/>
<text text-anchor="middle" x="731" y="-683.8" font-family="Arial" font-size="14.00" fill="#000000">membus </text>
<text text-anchor="middle" x="731" y="-668.8" font-family="Arial" font-size="14.00" fill="#000000">: SystemXBar</text>
</a>
</g>
</g>
<g id="clust5" class="cluster">
<title>cluster_system_tol2bus</title>
<g id="a_clust5"><a xlink:title="clk_domain=system.cpu_clk_domain&#10;default_p_state=UNDEFINED&#10;eventq_index=0&#10;forward_latency=0&#10;frontend_latency=1&#10;p_state_clk_gate_bins=20&#10;p_state_clk_gate_max=1000000000000&#10;p_state_clk_gate_min=1000&#10;point_of_coherency=false&#10;point_of_unification=true&#10;power_model=&#10;response_latency=1&#10;snoop_filter=system.tol2bus.snoop_filter&#10;snoop_response_latency=1&#10;system=system&#10;use_default_range=false&#10;width=32">
<path fill="#6f798c" stroke="#000000" d="M705,-155C705,-155 831,-155 831,-155 837,-155 843,-161 843,-167 843,-167 843,-234 843,-234 843,-240 837,-246 831,-246 831,-246 705,-246 705,-246 699,-246 693,-240 693,-234 693,-234 693,-167 693,-167 693,-161 699,-155 705,-155"/>
<text text-anchor="middle" x="768" y="-230.8" font-family="Arial" font-size="14.00" fill="#000000">tol2bus </text>
<text text-anchor="middle" x="768" y="-215.8" font-family="Arial" font-size="14.00" fill="#000000">: L2XBar</text>
</a>
</g>
</g>
<g id="clust9" class="cluster">
<title>cluster_system_l2</title>
<g id="a_clust9"><a xlink:title="addr_ranges=0:18446744073709551615:0:0:0:0&#10;assoc=4&#10;clk_domain=system.cpu_clk_domain&#10;clusivity=mostly_incl&#10;data_latency=20&#10;default_p_state=UNDEFINED&#10;demand_mshr_reserve=1&#10;eventq_index=0&#10;is_read_only=false&#10;max_miss_count=0&#10;mshrs=20&#10;p_state_clk_gate_bins=20&#10;p_state_clk_gate_max=1000000000000&#10;p_state_clk_gate_min=1000&#10;power_model=&#10;prefetch_on_access=false&#10;prefetcher=Null&#10;replacement_policy=system.l2.replacement_policy&#10;response_latency=20&#10;sequential_access=false&#10;size=2097152&#10;system=system&#10;tag_latency=20&#10;tags=system.l2.tags&#10;tgts_per_mshr=12&#10;warmup_percentage=0&#10;write_allocator=Null&#10;write_buffers=8&#10;writeback_clean=false">
<path fill="#bab6ae" stroke="#000000" d="M816,-24C816,-24 986,-24 986,-24 992,-24 998,-30 998,-36 998,-36 998,-103 998,-103 998,-109 992,-115 986,-115 986,-115 816,-115 816,-115 810,-115 804,-109 804,-103 804,-103 804,-36 804,-36 804,-30 810,-24 816,-24"/>
<text text-anchor="middle" x="901" y="-99.8" font-family="Arial" font-size="14.00" fill="#000000">l2 </text>
<text text-anchor="middle" x="901" y="-84.8" font-family="Arial" font-size="14.00" fill="#000000">: L2Cache</text>
</a>
</g>
</g>
<g id="clust14" class="cluster">
<title>cluster_system_mem_ctrls</title>
<g id="a_clust14"><a xlink:title="IDD0=0.055&#10;IDD02=0.0&#10;IDD2N=0.032&#10;IDD2N2=0.0&#10;IDD2P0=0.0&#10;IDD2P02=0.0&#10;IDD2P1=0.032&#10;IDD2P12=0.0&#10;IDD3N=0.038&#10;IDD3N2=0.0&#10;IDD3P0=0.0&#10;IDD3P02=0.0&#10;IDD3P1=0.038&#10;IDD3P12=0.0&#10;IDD4R=0.157&#10;IDD4R2=0.0&#10;IDD4W=0.125&#10;IDD4W2=0.0&#10;IDD5=0.235&#10;IDD52=0.0&#10;IDD6=0.02&#10;IDD62=0.0&#10;VDD=1.5&#10;VDD2=0.0&#10;activation_limit=4&#10;addr_mapping=RoRaBaCoCh&#10;bank_groups_per_rank=0&#10;banks_per_rank=8&#10;burst_length=8&#10;channels=1&#10;clk_domain=system.clk_domain&#10;coherence_granularity=64&#10;conf_table_reported=true&#10;cpu_type=&#10;default_p_state=UNDEFINED&#10;device_bus_width=8&#10;device_rowbuffer_size=1024&#10;device_size=536870912&#10;devices_per_rank=8&#10;dll=true&#10;eventq_index=0&#10;in_addr_map=true&#10;kvm_map=true&#10;max_accesses_per_row=16&#10;mem_sched_policy=frfcfs&#10;min_writes_per_switch=16&#10;null=false&#10;p_state_clk_gate_bins=20&#10;p_state_clk_gate_max=1000000000000&#10;p_state_clk_gate_min=1000&#10;page_policy=open_adaptive&#10;power_model=&#10;qos_masters= &#160;&#160;&#160;&#160;&#160;&#160;&#160;&#160;&#160;&#160;&#160;&#160;&#160;&#160;&#10;qos_policy=Null&#10;qos_priorities=1&#10;qos_priority_escalation=false&#10;qos_q_policy=fifo&#10;qos_syncro_scheduler=false&#10;qos_turnaround_policy=Null&#10;range=0:1073741823:6:19:0:0&#10;ranks_per_channel=1&#10;read_buffer_size=32&#10;static_backend_latency=10000&#10;static_frontend_latency=10000&#10;tBURST=5000&#10;tCCD_L=0&#10;tCCD_L_WR=0&#10;tCK=1250&#10;tCL=13750&#10;tCS=2500&#10;tRAS=35000&#10;tRCD=13750&#10;tREFI=7800000&#10;tRFC=260000&#10;tRP=13750&#10;tRRD=6000&#10;tRRD_L=0&#10;tRTP=7500&#10;tRTW=2500&#10;tWR=15000&#10;tWTR=7500&#10;tXAW=30000&#10;tXP=6000&#10;tXPDLL=0&#10;tXS=270000&#10;tXSDLL=0&#10;write_buffer_size=64&#10;write_high_thresh_perc=85&#10;write_low_thresh_perc=50">
<path fill="#5e5958" stroke="#000000" d="M36,-417C36,-417 149,-417 149,-417 155,-417 161,-423 161,-429 161,-429 161,-496 161,-496 161,-502 155,-508 149,-508 149,-508 36,-508 36,-508 30,-508 24,-502 24,-496 24,-496 24,-429 24,-429 24,-423 30,-417 36,-417"/>
<text text-anchor="middle" x="92.5" y="-492.8" font-family="Arial" font-size="14.00" fill="#000000">mem_ctrls </text>
<text text-anchor="middle" x="92.5" y="-477.8" font-family="Arial" font-size="14.00" fill="#000000">: DDR3_1600_8x8</text>
</a>
</g>
</g>
<g id="clust17" class="cluster">
<title>cluster_system_cpu</title>
<g id="a_clust17"><a xlink:title="branchPred=Null&#10;checker=Null&#10;clk_domain=system.cpu_clk_domain&#10;cpu_id=0&#10;default_p_state=UNDEFINED&#10;do_checkpoint_insts=true&#10;do_quiesce=true&#10;do_statistics_insts=true&#10;dtb=system.cpu.dtb&#10;eventq_index=0&#10;function_trace=false&#10;function_trace_start=0&#10;host_id=&#45;1&#10;interrupts=system.cpu.interrupts&#10;isa=system.cpu.isa&#10;ispim=false&#10;itb=system.cpu.itb&#10;max_insts_all_threads=0&#10;max_insts_any_thread=0&#10;max_loads_all_threads=0&#10;max_loads_any_thread=0&#10;numThreads=1&#10;p_state_clk_gate_bins=20&#10;p_state_clk_gate_max=1000000000000&#10;p_state_clk_gate_min=1000&#10;pim_base_addr=0&#10;power_gating_on_idle=false&#10;power_model=&#10;profile=0&#10;progress_interval=0&#10;pwr_gating_latency=300&#10;simpoint_start_insts=&#10;socket_id=0&#10;switched_out=false&#10;syscallRetryLatency=10000&#10;system=system&#10;total_host_cpu=1&#10;tracer=system.cpu.tracer&#10;wait_for_remote_gdb=false&#10;workload=system.cpu.workload">
<path fill="#bbc6d9" stroke="#000000" d="M181,-278C181,-278 1023,-278 1023,-278 1029,-278 1035,-284 1035,-290 1035,-290 1035,-588 1035,-588 1035,-594 1029,-600 1023,-600 1023,-600 181,-600 181,-600 175,-600 169,-594 169,-588 169,-588 169,-290 169,-290 169,-284 175,-278 181,-278"/>
<text text-anchor="middle" x="602" y="-584.8" font-family="Arial" font-size="14.00" fill="#000000">cpu </text>
<text text-anchor="middle" x="602" y="-569.8" font-family="Arial" font-size="14.00" fill="#000000">: TimingSimpleCPU</text>
</a>
</g>
</g>
<g id="clust18" class="cluster">
<title>cluster_system_cpu_icache</title>
<g id="a_clust18"><a xlink:title="addr_ranges=0:18446744073709551615:0:0:0:0&#10;assoc=2&#10;clk_domain=system.cpu_clk_domain&#10;clusivity=mostly_incl&#10;data_latency=2&#10;default_p_state=UNDEFINED&#10;demand_mshr_reserve=1&#10;eventq_index=0&#10;is_read_only=true&#10;max_miss_count=0&#10;mshrs=4&#10;p_state_clk_gate_bins=20&#10;p_state_clk_gate_max=1000000000000&#10;p_state_clk_gate_min=1000&#10;power_model=&#10;prefetch_on_access=false&#10;prefetcher=Null&#10;replacement_policy=system.cpu.icache.replacement_policy&#10;response_latency=2&#10;sequential_access=false&#10;size=32768&#10;system=system&#10;tag_latency=2&#10;tags=system.cpu.icache.tags&#10;tgts_per_mshr=20&#10;warmup_percentage=0&#10;write_allocator=Null&#10;write_buffers=8&#10;writeback_clean=true">
<path fill="#bab6ae" stroke="#000000" d="M394,-286C394,-286 564,-286 564,-286 570,-286 576,-292 576,-298 576,-298 576,-365 576,-365 576,-371 570,-377 564,-377 564,-377 394,-377 394,-377 388,-377 382,-371 382,-365 382,-365 382,-298 382,-298 382,-292 388,-286 394,-286"/>
<text text-anchor="middle" x="479" y="-361.8" font-family="Arial" font-size="14.00" fill="#000000">icache </text>
<text text-anchor="middle" x="479" y="-346.8" font-family="Arial" font-size="14.00" fill="#000000">: L1_ICache</text>
</a>
</g>
</g>
<g id="clust23" class="cluster">
<title>cluster_system_cpu_dtb</title>
<g id="a_clust23"><a xlink:title="eventq_index=0&#10;size=64&#10;walker=system.cpu.dtb.walker">
<path fill="#bab6ae" stroke="#000000" d="M862,-409C862,-409 1015,-409 1015,-409 1021,-409 1027,-415 1027,-421 1027,-421 1027,-542 1027,-542 1027,-548 1021,-554 1015,-554 1015,-554 862,-554 862,-554 856,-554 850,-548 850,-542 850,-542 850,-421 850,-421 850,-415 856,-409 862,-409"/>
<text text-anchor="middle" x="938.5" y="-538.8" font-family="Arial" font-size="14.00" fill="#000000">dtb </text>
<text text-anchor="middle" x="938.5" y="-523.8" font-family="Arial" font-size="14.00" fill="#000000">: X86TLB</text>
</a>
</g>
</g>
<g id="clust24" class="cluster">
<title>cluster_system_cpu_dtb_walker</title>
<g id="a_clust24"><a xlink:title="clk_domain=system.cpu_clk_domain&#10;default_p_state=UNDEFINED&#10;eventq_index=0&#10;num_squash_per_cycle=4&#10;p_state_clk_gate_bins=20&#10;p_state_clk_gate_max=1000000000000&#10;p_state_clk_gate_min=1000&#10;power_model=&#10;system=system">
<path fill="#9f9c95" stroke="#000000" d="M870,-417C870,-417 1007,-417 1007,-417 1013,-417 1019,-423 1019,-429 1019,-429 1019,-496 1019,-496 1019,-502 1013,-508 1007,-508 1007,-508 870,-508 870,-508 864,-508 858,-502 858,-496 858,-496 858,-429 858,-429 858,-423 864,-417 870,-417"/>
<text text-anchor="middle" x="938.5" y="-492.8" font-family="Arial" font-size="14.00" fill="#000000">walker </text>
<text text-anchor="middle" x="938.5" y="-477.8" font-family="Arial" font-size="14.00" fill="#000000">: X86PagetableWalker</text>
</a>
</g>
</g>
<g id="clust25" class="cluster">
<title>cluster_system_cpu_interrupts</title>
<g id="a_clust25"><a xlink:title="clk_domain=system.cpu.apic_clk_domain&#10;default_p_state=UNDEFINED&#10;eventq_index=0&#10;int_latency=1000&#10;p_state_clk_gate_bins=20&#10;p_state_clk_gate_max=1000000000000&#10;p_state_clk_gate_min=1000&#10;pim=false&#10;pio_addr=2305843009213693952&#10;pio_latency=100000&#10;power_model=&#10;system=system">
<path fill="#c7a793" stroke="#000000" d="M590,-417C590,-417 830,-417 830,-417 836,-417 842,-423 842,-429 842,-429 842,-496 842,-496 842,-502 836,-508 830,-508 830,-508 590,-508 590,-508 584,-508 578,-502 578,-496 578,-496 578,-429 578,-429 578,-423 584,-417 590,-417"/>
<text text-anchor="middle" x="710" y="-492.8" font-family="Arial" font-size="14.00" fill="#000000">interrupts </text>
<text text-anchor="middle" x="710" y="-477.8" font-family="Arial" font-size="14.00" fill="#000000">: X86LocalApic</text>
</a>
</g>
</g>
<g id="clust26" class="cluster">
<title>cluster_system_cpu_itb_walker_cache</title>
<g id="a_clust26"><a xlink:title="addr_ranges=0:18446744073709551615:0:0:0:0&#10;assoc=2&#10;clk_domain=system.cpu_clk_domain&#10;clusivity=mostly_incl&#10;data_latency=2&#10;default_p_state=UNDEFINED&#10;demand_mshr_reserve=1&#10;eventq_index=0&#10;is_read_only=false&#10;max_miss_count=0&#10;mshrs=10&#10;p_state_clk_gate_bins=20&#10;p_state_clk_gate_max=1000000000000&#10;p_state_clk_gate_min=1000&#10;power_model=&#10;prefetch_on_access=false&#10;prefetcher=Null&#10;replacement_policy=system.cpu.itb_walker_cache.replacement_policy&#10;response_latency=2&#10;sequential_access=false&#10;size=1024&#10;system=system&#10;tag_latency=2&#10;tags=system.cpu.itb_walker_cache.tags&#10;tgts_per_mshr=12&#10;warmup_percentage=0&#10;write_allocator=Null&#10;write_buffers=8&#10;writeback_clean=false">
<path fill="#bab6ae" stroke="#000000" d="M596,-286C596,-286 766,-286 766,-286 772,-286 778,-292 778,-298 778,-298 778,-365 778,-365 778,-371 772,-377 766,-377 766,-377 596,-377 596,-377 590,-377 584,-371 584,-365 584,-365 584,-298 584,-298 584,-292 590,-286 596,-286"/>
<text text-anchor="middle" x="681" y="-361.8" font-family="Arial" font-size="14.00" fill="#000000">itb_walker_cache </text>
<text text-anchor="middle" x="681" y="-346.8" font-family="Arial" font-size="14.00" fill="#000000">: PageTableWalkerCache</text>
</a>
</g>
</g>
<g id="clust30" class="cluster">
<title>cluster_system_cpu_itb</title>
<g id="a_clust30"><a xlink:title="eventq_index=0&#10;size=64&#10;walker=system.cpu.itb.walker">
<path fill="#bab6ae" stroke="#000000" d="M405,-409C405,-409 558,-409 558,-409 564,-409 570,-415 570,-421 570,-421 570,-542 570,-542 570,-548 564,-554 558,-554 558,-554 405,-554 405,-554 399,-554 393,-548 393,-542 393,-542 393,-421 393,-421 393,-415 399,-409 405,-409"/>
<text text-anchor="middle" x="481.5" y="-538.8" font-family="Arial" font-size="14.00" fill="#000000">itb </text>
<text text-anchor="middle" x="481.5" y="-523.8" font-family="Arial" font-size="14.00" fill="#000000">: X86TLB</text>
</a>
</g>
</g>
<g id="clust31" class="cluster">
<title>cluster_system_cpu_itb_walker</title>
<g id="a_clust31"><a xlink:title="clk_domain=system.cpu_clk_domain&#10;default_p_state=UNDEFINED&#10;eventq_index=0&#10;num_squash_per_cycle=4&#10;p_state_clk_gate_bins=20&#10;p_state_clk_gate_max=1000000000000&#10;p_state_clk_gate_min=1000&#10;power_model=&#10;system=system">
<path fill="#9f9c95" stroke="#000000" d="M413,-417C413,-417 550,-417 550,-417 556,-417 562,-423 562,-429 562,-429 562,-496 562,-496 562,-502 556,-508 550,-508 550,-508 413,-508 413,-508 407,-508 401,-502 401,-496 401,-496 401,-429 401,-429 401,-423 407,-417 413,-417"/>
<text text-anchor="middle" x="481.5" y="-492.8" font-family="Arial" font-size="14.00" fill="#000000">walker </text>
<text text-anchor="middle" x="481.5" y="-477.8" font-family="Arial" font-size="14.00" fill="#000000">: X86PagetableWalker</text>
</a>
</g>
</g>
<g id="clust32" class="cluster">
<title>cluster_system_cpu_dtb_walker_cache</title>
<g id="a_clust32"><a xlink:title="addr_ranges=0:18446744073709551615:0:0:0:0&#10;assoc=2&#10;clk_domain=system.cpu_clk_domain&#10;clusivity=mostly_incl&#10;data_latency=2&#10;default_p_state=UNDEFINED&#10;demand_mshr_reserve=1&#10;eventq_index=0&#10;is_read_only=false&#10;max_miss_count=0&#10;mshrs=10&#10;p_state_clk_gate_bins=20&#10;p_state_clk_gate_max=1000000000000&#10;p_state_clk_gate_min=1000&#10;power_model=&#10;prefetch_on_access=false&#10;prefetcher=Null&#10;replacement_policy=system.cpu.dtb_walker_cache.replacement_policy&#10;response_latency=2&#10;sequential_access=false&#10;size=1024&#10;system=system&#10;tag_latency=2&#10;tags=system.cpu.dtb_walker_cache.tags&#10;tgts_per_mshr=12&#10;warmup_percentage=0&#10;write_allocator=Null&#10;write_buffers=8&#10;writeback_clean=false">
<path fill="#bab6ae" stroke="#000000" d="M821,-286C821,-286 991,-286 991,-286 997,-286 1003,-292 1003,-298 1003,-298 1003,-365 1003,-365 1003,-371 997,-377 991,-377 991,-377 821,-377 821,-377 815,-377 809,-371 809,-365 809,-365 809,-298 809,-298 809,-292 815,-286 821,-286"/>
<text text-anchor="middle" x="906" y="-361.8" font-family="Arial" font-size="14.00" fill="#000000">dtb_walker_cache </text>
<text text-anchor="middle" x="906" y="-346.8" font-family="Arial" font-size="14.00" fill="#000000">: PageTableWalkerCache</text>
</a>
</g>
</g>
<g id="clust37" class="cluster">
<title>cluster_system_cpu_dcache</title>
<g id="a_clust37"><a xlink:title="addr_ranges=0:18446744073709551615:0:0:0:0&#10;assoc=2&#10;clk_domain=system.cpu_clk_domain&#10;clusivity=mostly_incl&#10;data_latency=2&#10;default_p_state=UNDEFINED&#10;demand_mshr_reserve=1&#10;eventq_index=0&#10;is_read_only=false&#10;max_miss_count=0&#10;mshrs=4&#10;p_state_clk_gate_bins=20&#10;p_state_clk_gate_max=1000000000000&#10;p_state_clk_gate_min=1000&#10;power_model=&#10;prefetch_on_access=false&#10;prefetcher=Null&#10;replacement_policy=system.cpu.dcache.replacement_policy&#10;response_latency=2&#10;sequential_access=false&#10;size=32768&#10;system=system&#10;tag_latency=2&#10;tags=system.cpu.dcache.tags&#10;tgts_per_mshr=20&#10;warmup_percentage=0&#10;write_allocator=Null&#10;write_buffers=8&#10;writeback_clean=false">
<path fill="#bab6ae" stroke="#000000" d="M192,-286C192,-286 362,-286 362,-286 368,-286 374,-292 374,-298 374,-298 374,-365 374,-365 374,-371 368,-377 362,-377 362,-377 192,-377 192,-377 186,-377 180,-371 180,-365 180,-365 180,-298 180,-298 180,-292 186,-286 192,-286"/>
<text text-anchor="middle" x="277" y="-361.8" font-family="Arial" font-size="14.00" fill="#000000">dcache </text>
<text text-anchor="middle" x="277" y="-346.8" font-family="Arial" font-size="14.00" fill="#000000">: L1_DCache</text>
</a>
</g>
</g>
<!-- system_system_port -->
<g id="node1" class="node">
<title>system_system_port</title>
<path fill="#b6b8bc" stroke="#000000" d="M735,-747.5C735,-747.5 807,-747.5 807,-747.5 813,-747.5 819,-753.5 819,-759.5 819,-759.5 819,-771.5 819,-771.5 819,-777.5 813,-783.5 807,-783.5 807,-783.5 735,-783.5 735,-783.5 729,-783.5 723,-777.5 723,-771.5 723,-771.5 723,-759.5 723,-759.5 723,-753.5 729,-747.5 735,-747.5"/>
<text text-anchor="middle" x="771" y="-761.8" font-family="Arial" font-size="14.00" fill="#000000">system_port</text>
</g>
<!-- system_membus_slave -->
<g id="node3" class="node">
<title>system_membus_slave</title>
<path fill="#586070" stroke="#000000" d="M756,-616.5C756,-616.5 786,-616.5 786,-616.5 792,-616.5 798,-622.5 798,-628.5 798,-628.5 798,-640.5 798,-640.5 798,-646.5 792,-652.5 786,-652.5 786,-652.5 756,-652.5 756,-652.5 750,-652.5 744,-646.5 744,-640.5 744,-640.5 744,-628.5 744,-628.5 744,-622.5 750,-616.5 756,-616.5"/>
<text text-anchor="middle" x="771" y="-630.8" font-family="Arial" font-size="14.00" fill="#000000">slave</text>
</g>
<!-- system_system_port&#45;&gt;system_membus_slave -->
<g id="edge1" class="edge">
<title>system_system_port&#45;&gt;system_membus_slave</title>
<path fill="none" stroke="#000000" d="M771,-747.285C771,-725.3856 771,-688.3861 771,-662.7663"/>
<polygon fill="#000000" stroke="#000000" points="774.5001,-662.5603 771,-652.5603 767.5001,-662.5603 774.5001,-662.5603"/>
</g>
<!-- system_membus_master -->
<g id="node2" class="node">
<title>system_membus_master</title>
<path fill="#586070" stroke="#000000" d="M676.5,-616.5C676.5,-616.5 713.5,-616.5 713.5,-616.5 719.5,-616.5 725.5,-622.5 725.5,-628.5 725.5,-628.5 725.5,-640.5 725.5,-640.5 725.5,-646.5 719.5,-652.5 713.5,-652.5 713.5,-652.5 676.5,-652.5 676.5,-652.5 670.5,-652.5 664.5,-646.5 664.5,-640.5 664.5,-640.5 664.5,-628.5 664.5,-628.5 664.5,-622.5 670.5,-616.5 676.5,-616.5"/>
<text text-anchor="middle" x="695" y="-630.8" font-family="Arial" font-size="14.00" fill="#000000">master</text>
</g>
<!-- system_mem_ctrls_port -->
<g id="node8" class="node">
<title>system_mem_ctrls_port</title>
<path fill="#4b4746" stroke="#000000" d="M111,-425.5C111,-425.5 141,-425.5 141,-425.5 147,-425.5 153,-431.5 153,-437.5 153,-437.5 153,-449.5 153,-449.5 153,-455.5 147,-461.5 141,-461.5 141,-461.5 111,-461.5 111,-461.5 105,-461.5 99,-455.5 99,-449.5 99,-449.5 99,-437.5 99,-437.5 99,-431.5 105,-425.5 111,-425.5"/>
<text text-anchor="middle" x="126" y="-439.8" font-family="Arial" font-size="14.00" fill="#000000">port</text>
</g>
<!-- system_membus_master&#45;&gt;system_mem_ctrls_port -->
<g id="edge2" class="edge">
<title>system_membus_master&#45;&gt;system_mem_ctrls_port</title>
<path fill="none" stroke="#000000" d="M664.3299,-633.497C554.2097,-629.768 184.264,-616.0876 165,-600 127.7009,-568.8511 123.0499,-508.012 123.9232,-472.0528"/>
<polygon fill="#000000" stroke="#000000" points="127.4328,-471.886 124.3416,-461.7522 120.4385,-471.6019 127.4328,-471.886"/>
</g>
<!-- system_cpu_interrupts_int_slave -->
<g id="node14" class="node">
<title>system_cpu_interrupts_int_slave</title>
<path fill="#9f8575" stroke="#000000" d="M670,-425.5C670,-425.5 720,-425.5 720,-425.5 726,-425.5 732,-431.5 732,-437.5 732,-437.5 732,-449.5 732,-449.5 732,-455.5 726,-461.5 720,-461.5 720,-461.5 670,-461.5 670,-461.5 664,-461.5 658,-455.5 658,-449.5 658,-449.5 658,-437.5 658,-437.5 658,-431.5 664,-425.5 670,-425.5"/>
<text text-anchor="middle" x="695" y="-439.8" font-family="Arial" font-size="14.00" fill="#000000">int_slave</text>
</g>
<!-- system_membus_master&#45;&gt;system_cpu_interrupts_int_slave -->
<g id="edge4" class="edge">
<title>system_membus_master&#45;&gt;system_cpu_interrupts_int_slave</title>
<path fill="none" stroke="#000000" d="M695,-616.1861C695,-582.7443 695,-511.586 695,-471.8441"/>
<polygon fill="#000000" stroke="#000000" points="698.5001,-471.7584 695,-461.7584 691.5001,-471.7585 698.5001,-471.7584"/>
</g>
<!-- system_cpu_interrupts_pio -->
<g id="node16" class="node">
<title>system_cpu_interrupts_pio</title>
<path fill="#9f8575" stroke="#000000" d="M598,-425.5C598,-425.5 628,-425.5 628,-425.5 634,-425.5 640,-431.5 640,-437.5 640,-437.5 640,-449.5 640,-449.5 640,-455.5 634,-461.5 628,-461.5 628,-461.5 598,-461.5 598,-461.5 592,-461.5 586,-455.5 586,-449.5 586,-449.5 586,-437.5 586,-437.5 586,-431.5 592,-425.5 598,-425.5"/>
<text text-anchor="middle" x="613" y="-439.8" font-family="Arial" font-size="14.00" fill="#000000">pio</text>
</g>
<!-- system_membus_master&#45;&gt;system_cpu_interrupts_pio -->
<g id="edge3" class="edge">
<title>system_membus_master&#45;&gt;system_cpu_interrupts_pio</title>
<path fill="none" stroke="#000000" d="M664.4163,-616.3711C658.5708,-611.6876 653.0279,-606.1924 649,-600 623.46,-560.7354 615.9375,-505.6028 613.7836,-472.3413"/>
<polygon fill="#000000" stroke="#000000" points="617.2579,-471.758 613.2406,-461.9543 610.2675,-472.1234 617.2579,-471.758"/>
</g>
<!-- system_tol2bus_master -->
<g id="node4" class="node">
<title>system_tol2bus_master</title>
<path fill="#586070" stroke="#000000" d="M785.5,-163.5C785.5,-163.5 822.5,-163.5 822.5,-163.5 828.5,-163.5 834.5,-169.5 834.5,-175.5 834.5,-175.5 834.5,-187.5 834.5,-187.5 834.5,-193.5 828.5,-199.5 822.5,-199.5 822.5,-199.5 785.5,-199.5 785.5,-199.5 779.5,-199.5 773.5,-193.5 773.5,-187.5 773.5,-187.5 773.5,-175.5 773.5,-175.5 773.5,-169.5 779.5,-163.5 785.5,-163.5"/>
<text text-anchor="middle" x="804" y="-177.8" font-family="Arial" font-size="14.00" fill="#000000">master</text>
</g>
<!-- system_l2_cpu_side -->
<g id="node7" class="node">
<title>system_l2_cpu_side</title>
<path fill="#94918b" stroke="#000000" d="M824,-32.5C824,-32.5 876,-32.5 876,-32.5 882,-32.5 888,-38.5 888,-44.5 888,-44.5 888,-56.5 888,-56.5 888,-62.5 882,-68.5 876,-68.5 876,-68.5 824,-68.5 824,-68.5 818,-68.5 812,-62.5 812,-56.5 812,-56.5 812,-44.5 812,-44.5 812,-38.5 818,-32.5 824,-32.5"/>
<text text-anchor="middle" x="850" y="-46.8" font-family="Arial" font-size="14.00" fill="#000000">cpu_side</text>
</g>
<!-- system_tol2bus_master&#45;&gt;system_l2_cpu_side -->
<g id="edge5" class="edge">
<title>system_tol2bus_master&#45;&gt;system_l2_cpu_side</title>
<path fill="none" stroke="#000000" d="M810.3961,-163.285C818.1546,-141.19 831.3106,-103.7242 840.3144,-78.0828"/>
<polygon fill="#000000" stroke="#000000" points="843.6474,-79.1551 843.6582,-68.5603 837.0427,-76.8359 843.6474,-79.1551"/>
</g>
<!-- system_tol2bus_slave -->
<g id="node5" class="node">
<title>system_tol2bus_slave</title>
<path fill="#586070" stroke="#000000" d="M713,-163.5C713,-163.5 743,-163.5 743,-163.5 749,-163.5 755,-169.5 755,-175.5 755,-175.5 755,-187.5 755,-187.5 755,-193.5 749,-199.5 743,-199.5 743,-199.5 713,-199.5 713,-199.5 707,-199.5 701,-193.5 701,-187.5 701,-187.5 701,-175.5 701,-175.5 701,-169.5 707,-163.5 713,-163.5"/>
<text text-anchor="middle" x="728" y="-177.8" font-family="Arial" font-size="14.00" fill="#000000">slave</text>
</g>
<!-- system_l2_mem_side -->
<g id="node6" class="node">
<title>system_l2_mem_side</title>
<path fill="#94918b" stroke="#000000" d="M918,-32.5C918,-32.5 978,-32.5 978,-32.5 984,-32.5 990,-38.5 990,-44.5 990,-44.5 990,-56.5 990,-56.5 990,-62.5 984,-68.5 978,-68.5 978,-68.5 918,-68.5 918,-68.5 912,-68.5 906,-62.5 906,-56.5 906,-56.5 906,-44.5 906,-44.5 906,-38.5 912,-32.5 918,-32.5"/>
<text text-anchor="middle" x="948" y="-46.8" font-family="Arial" font-size="14.00" fill="#000000">mem_side</text>
</g>
<!-- system_l2_mem_side&#45;&gt;system_membus_slave -->
<g id="edge6" class="edge">
<title>system_l2_mem_side&#45;&gt;system_membus_slave</title>
<path fill="none" stroke="#000000" d="M959.2054,-68.7361C1004.2837,-144.6484 1163.3619,-439.1126 1023,-600 1009.1189,-615.911 875.3094,-627.305 808.5266,-632.0499"/>
<polygon fill="#000000" stroke="#000000" points="808.1452,-628.5679 798.4124,-632.754 808.6314,-635.551 808.1452,-628.5679"/>
</g>
<!-- system_cpu_icache_port -->
<g id="node9" class="node">
<title>system_cpu_icache_port</title>
<path fill="#959ead" stroke="#000000" d="M305,-425.5C305,-425.5 373,-425.5 373,-425.5 379,-425.5 385,-431.5 385,-437.5 385,-437.5 385,-449.5 385,-449.5 385,-455.5 379,-461.5 373,-461.5 373,-461.5 305,-461.5 305,-461.5 299,-461.5 293,-455.5 293,-449.5 293,-449.5 293,-437.5 293,-437.5 293,-431.5 299,-425.5 305,-425.5"/>
<text text-anchor="middle" x="339" y="-439.8" font-family="Arial" font-size="14.00" fill="#000000">icache_port</text>
</g>
<!-- system_cpu_icache_cpu_side -->
<g id="node12" class="node">
<title>system_cpu_icache_cpu_side</title>
<path fill="#94918b" stroke="#000000" d="M402,-294.5C402,-294.5 454,-294.5 454,-294.5 460,-294.5 466,-300.5 466,-306.5 466,-306.5 466,-318.5 466,-318.5 466,-324.5 460,-330.5 454,-330.5 454,-330.5 402,-330.5 402,-330.5 396,-330.5 390,-324.5 390,-318.5 390,-318.5 390,-306.5 390,-306.5 390,-300.5 396,-294.5 402,-294.5"/>
<text text-anchor="middle" x="428" y="-308.8" font-family="Arial" font-size="14.00" fill="#000000">cpu_side</text>
</g>
<!-- system_cpu_icache_port&#45;&gt;system_cpu_icache_cpu_side -->
<g id="edge7" class="edge">
<title>system_cpu_icache_port&#45;&gt;system_cpu_icache_cpu_side</title>
<path fill="none" stroke="#000000" d="M351.3751,-425.285C366.5854,-402.8968 392.5177,-364.7268 409.95,-339.068"/>
<polygon fill="#000000" stroke="#000000" points="413.0054,-340.7988 415.73,-330.5603 407.2153,-336.865 413.0054,-340.7988"/>
</g>
<!-- system_cpu_dcache_port -->
<g id="node10" class="node">
<title>system_cpu_dcache_port</title>
<path fill="#959ead" stroke="#000000" d="M189,-425.5C189,-425.5 263,-425.5 263,-425.5 269,-425.5 275,-431.5 275,-437.5 275,-437.5 275,-449.5 275,-449.5 275,-455.5 269,-461.5 263,-461.5 263,-461.5 189,-461.5 189,-461.5 183,-461.5 177,-455.5 177,-449.5 177,-449.5 177,-437.5 177,-437.5 177,-431.5 183,-425.5 189,-425.5"/>
<text text-anchor="middle" x="226" y="-439.8" font-family="Arial" font-size="14.00" fill="#000000">dcache_port</text>
</g>
<!-- system_cpu_dcache_cpu_side -->
<g id="node23" class="node">
<title>system_cpu_dcache_cpu_side</title>
<path fill="#94918b" stroke="#000000" d="M200,-294.5C200,-294.5 252,-294.5 252,-294.5 258,-294.5 264,-300.5 264,-306.5 264,-306.5 264,-318.5 264,-318.5 264,-324.5 258,-330.5 252,-330.5 252,-330.5 200,-330.5 200,-330.5 194,-330.5 188,-324.5 188,-318.5 188,-318.5 188,-306.5 188,-306.5 188,-300.5 194,-294.5 200,-294.5"/>
<text text-anchor="middle" x="226" y="-308.8" font-family="Arial" font-size="14.00" fill="#000000">cpu_side</text>
</g>
<!-- system_cpu_dcache_port&#45;&gt;system_cpu_dcache_cpu_side -->
<g id="edge8" class="edge">
<title>system_cpu_dcache_port&#45;&gt;system_cpu_dcache_cpu_side</title>
<path fill="none" stroke="#000000" d="M226,-425.285C226,-403.3856 226,-366.3861 226,-340.7663"/>
<polygon fill="#000000" stroke="#000000" points="229.5001,-340.5603 226,-330.5603 222.5001,-340.5603 229.5001,-340.5603"/>
</g>
<!-- system_cpu_icache_mem_side -->
<g id="node11" class="node">
<title>system_cpu_icache_mem_side</title>
<path fill="#94918b" stroke="#000000" d="M496,-294.5C496,-294.5 556,-294.5 556,-294.5 562,-294.5 568,-300.5 568,-306.5 568,-306.5 568,-318.5 568,-318.5 568,-324.5 562,-330.5 556,-330.5 556,-330.5 496,-330.5 496,-330.5 490,-330.5 484,-324.5 484,-318.5 484,-318.5 484,-306.5 484,-306.5 484,-300.5 490,-294.5 496,-294.5"/>
<text text-anchor="middle" x="526" y="-308.8" font-family="Arial" font-size="14.00" fill="#000000">mem_side</text>
</g>
<!-- system_cpu_icache_mem_side&#45;&gt;system_tol2bus_slave -->
<g id="edge9" class="edge">
<title>system_cpu_icache_mem_side&#45;&gt;system_tol2bus_slave</title>
<path fill="none" stroke="#000000" d="M554.0872,-294.285C590.1679,-270.8861 652.8303,-230.2487 692.2686,-204.6723"/>
<polygon fill="#000000" stroke="#000000" points="694.311,-207.5194 700.7967,-199.1417 690.5022,-201.6463 694.311,-207.5194"/>
</g>
<!-- system_cpu_dtb_walker_port -->
<g id="node13" class="node">
<title>system_cpu_dtb_walker_port</title>
<path fill="#7f7c77" stroke="#000000" d="M878,-425.5C878,-425.5 908,-425.5 908,-425.5 914,-425.5 920,-431.5 920,-437.5 920,-437.5 920,-449.5 920,-449.5 920,-455.5 914,-461.5 908,-461.5 908,-461.5 878,-461.5 878,-461.5 872,-461.5 866,-455.5 866,-449.5 866,-449.5 866,-437.5 866,-437.5 866,-431.5 872,-425.5 878,-425.5"/>
<text text-anchor="middle" x="893" y="-439.8" font-family="Arial" font-size="14.00" fill="#000000">port</text>
</g>
<!-- system_cpu_dtb_walker_cache_cpu_side -->
<g id="node21" class="node">
<title>system_cpu_dtb_walker_cache_cpu_side</title>
<path fill="#94918b" stroke="#000000" d="M829,-294.5C829,-294.5 881,-294.5 881,-294.5 887,-294.5 893,-300.5 893,-306.5 893,-306.5 893,-318.5 893,-318.5 893,-324.5 887,-330.5 881,-330.5 881,-330.5 829,-330.5 829,-330.5 823,-330.5 817,-324.5 817,-318.5 817,-318.5 817,-306.5 817,-306.5 817,-300.5 823,-294.5 829,-294.5"/>
<text text-anchor="middle" x="855" y="-308.8" font-family="Arial" font-size="14.00" fill="#000000">cpu_side</text>
</g>
<!-- system_cpu_dtb_walker_port&#45;&gt;system_cpu_dtb_walker_cache_cpu_side -->
<g id="edge10" class="edge">
<title>system_cpu_dtb_walker_port&#45;&gt;system_cpu_dtb_walker_cache_cpu_side</title>
<path fill="none" stroke="#000000" d="M887.7163,-425.285C881.3354,-403.2878 870.5352,-366.0554 863.1,-340.4238"/>
<polygon fill="#000000" stroke="#000000" points="866.3863,-339.1893 860.2389,-330.5603 859.6634,-341.1395 866.3863,-339.1893"/>
</g>
<!-- system_cpu_interrupts_int_master -->
<g id="node15" class="node">
<title>system_cpu_interrupts_int_master</title>
<path fill="#9f8575" stroke="#000000" d="M762,-425.5C762,-425.5 822,-425.5 822,-425.5 828,-425.5 834,-431.5 834,-437.5 834,-437.5 834,-449.5 834,-449.5 834,-455.5 828,-461.5 822,-461.5 822,-461.5 762,-461.5 762,-461.5 756,-461.5 750,-455.5 750,-449.5 750,-449.5 750,-437.5 750,-437.5 750,-431.5 756,-425.5 762,-425.5"/>
<text text-anchor="middle" x="792" y="-439.8" font-family="Arial" font-size="14.00" fill="#000000">int_master</text>
</g>
<!-- system_cpu_interrupts_int_master&#45;&gt;system_membus_slave -->
<g id="edge11" class="edge">
<title>system_cpu_interrupts_int_master&#45;&gt;system_membus_slave</title>
<path fill="none" stroke="#000000" d="M789.9925,-461.7584C786.3203,-495.1585 778.497,-566.3133 774.1236,-606.09"/>
<polygon fill="#000000" stroke="#000000" points="770.6275,-605.8635 773.0136,-616.1861 777.5856,-606.6286 770.6275,-605.8635"/>
</g>
<!-- system_cpu_itb_walker_cache_mem_side -->
<g id="node17" class="node">
<title>system_cpu_itb_walker_cache_mem_side</title>
<path fill="#94918b" stroke="#000000" d="M698,-294.5C698,-294.5 758,-294.5 758,-294.5 764,-294.5 770,-300.5 770,-306.5 770,-306.5 770,-318.5 770,-318.5 770,-324.5 764,-330.5 758,-330.5 758,-330.5 698,-330.5 698,-330.5 692,-330.5 686,-324.5 686,-318.5 686,-318.5 686,-306.5 686,-306.5 686,-300.5 692,-294.5 698,-294.5"/>
<text text-anchor="middle" x="728" y="-308.8" font-family="Arial" font-size="14.00" fill="#000000">mem_side</text>
</g>
<!-- system_cpu_itb_walker_cache_mem_side&#45;&gt;system_tol2bus_slave -->
<g id="edge12" class="edge">
<title>system_cpu_itb_walker_cache_mem_side&#45;&gt;system_tol2bus_slave</title>
<path fill="none" stroke="#000000" d="M728,-294.285C728,-272.3856 728,-235.3861 728,-209.7663"/>
<polygon fill="#000000" stroke="#000000" points="731.5001,-209.5603 728,-199.5603 724.5001,-209.5603 731.5001,-209.5603"/>
</g>
<!-- system_cpu_itb_walker_cache_cpu_side -->
<g id="node18" class="node">
<title>system_cpu_itb_walker_cache_cpu_side</title>
<path fill="#94918b" stroke="#000000" d="M604,-294.5C604,-294.5 656,-294.5 656,-294.5 662,-294.5 668,-300.5 668,-306.5 668,-306.5 668,-318.5 668,-318.5 668,-324.5 662,-330.5 656,-330.5 656,-330.5 604,-330.5 604,-330.5 598,-330.5 592,-324.5 592,-318.5 592,-318.5 592,-306.5 592,-306.5 592,-300.5 598,-294.5 604,-294.5"/>
<text text-anchor="middle" x="630" y="-308.8" font-family="Arial" font-size="14.00" fill="#000000">cpu_side</text>
</g>
<!-- system_cpu_itb_walker_port -->
<g id="node19" class="node">
<title>system_cpu_itb_walker_port</title>
<path fill="#7f7c77" stroke="#000000" d="M512,-425.5C512,-425.5 542,-425.5 542,-425.5 548,-425.5 554,-431.5 554,-437.5 554,-437.5 554,-449.5 554,-449.5 554,-455.5 548,-461.5 542,-461.5 542,-461.5 512,-461.5 512,-461.5 506,-461.5 500,-455.5 500,-449.5 500,-449.5 500,-437.5 500,-437.5 500,-431.5 506,-425.5 512,-425.5"/>
<text text-anchor="middle" x="527" y="-439.8" font-family="Arial" font-size="14.00" fill="#000000">port</text>
</g>
<!-- system_cpu_itb_walker_port&#45;&gt;system_cpu_itb_walker_cache_cpu_side -->
<g id="edge13" class="edge">
<title>system_cpu_itb_walker_port&#45;&gt;system_cpu_itb_walker_cache_cpu_side</title>
<path fill="none" stroke="#000000" d="M541.4625,-425.4885C552.1548,-412.1397 567.0448,-393.4817 580,-377 589.8639,-364.451 600.7292,-350.4559 609.8042,-338.7177"/>
<polygon fill="#000000" stroke="#000000" points="612.7139,-340.6762 616.0559,-330.6222 607.1736,-336.3977 612.7139,-340.6762"/>
</g>
<!-- system_cpu_dtb_walker_cache_mem_side -->
<g id="node20" class="node">
<title>system_cpu_dtb_walker_cache_mem_side</title>
<path fill="#94918b" stroke="#000000" d="M923,-294.5C923,-294.5 983,-294.5 983,-294.5 989,-294.5 995,-300.5 995,-306.5 995,-306.5 995,-318.5 995,-318.5 995,-324.5 989,-330.5 983,-330.5 983,-330.5 923,-330.5 923,-330.5 917,-330.5 911,-324.5 911,-318.5 911,-318.5 911,-306.5 911,-306.5 911,-300.5 917,-294.5 923,-294.5"/>
<text text-anchor="middle" x="953" y="-308.8" font-family="Arial" font-size="14.00" fill="#000000">mem_side</text>
</g>
<!-- system_cpu_dtb_walker_cache_mem_side&#45;&gt;system_tol2bus_slave -->
<g id="edge14" class="edge">
<title>system_cpu_dtb_walker_cache_mem_side&#45;&gt;system_tol2bus_slave</title>
<path fill="none" stroke="#000000" d="M930.1778,-294.45C921.7194,-288.4826 911.7948,-282.2817 902,-278 844.7072,-252.9548 815.1637,-283.3274 765,-246 752.6204,-236.7882 743.7348,-222.1168 737.7794,-209.0926"/>
<polygon fill="#000000" stroke="#000000" points="740.8818,-207.4402 733.787,-199.5716 734.4264,-210.1472 740.8818,-207.4402"/>
</g>
<!-- system_cpu_dcache_mem_side -->
<g id="node22" class="node">
<title>system_cpu_dcache_mem_side</title>
<path fill="#94918b" stroke="#000000" d="M294,-294.5C294,-294.5 354,-294.5 354,-294.5 360,-294.5 366,-300.5 366,-306.5 366,-306.5 366,-318.5 366,-318.5 366,-324.5 360,-330.5 354,-330.5 354,-330.5 294,-330.5 294,-330.5 288,-330.5 282,-324.5 282,-318.5 282,-318.5 282,-306.5 282,-306.5 282,-300.5 288,-294.5 294,-294.5"/>
<text text-anchor="middle" x="324" y="-308.8" font-family="Arial" font-size="14.00" fill="#000000">mem_side</text>
</g>
<!-- system_cpu_dcache_mem_side&#45;&gt;system_tol2bus_slave -->
<g id="edge15" class="edge">
<title>system_cpu_dcache_mem_side&#45;&gt;system_tol2bus_slave</title>
<path fill="none" stroke="#000000" d="M348.936,-294.3629C357.7917,-288.5283 368.0396,-282.4334 378,-278 486.5501,-229.6836 625.0127,-200.1993 690.4784,-188.0108"/>
<polygon fill="#000000" stroke="#000000" points="691.5096,-191.3803 700.7154,-186.1358 690.2484,-184.4948 691.5096,-191.3803"/>
</g>
</g>
</svg>
