<?xml version="1.0" encoding="UTF-8" standalone="no"?>
<!DOCTYPE svg PUBLIC "-//W3C//DTD SVG 1.1//EN"
 "http://www.w3.org/Graphics/SVG/1.1/DTD/svg11.dtd">
<!-- Generated by graphviz version 2.40.1 (20161225.0304)
 -->
<!-- Title: G Pages: 1 -->
<svg width="1257pt" height="807pt"
 viewBox="0.00 0.00 1257.00 807.00" xmlns="http://www.w3.org/2000/svg" xmlns:xlink="http://www.w3.org/1999/xlink">
<g id="graph0" class="graph" transform="scale(1 1) rotate(0) translate(4 803)">
<title>G</title>
<polygon fill="#ffffff" stroke="transparent" points="-4,4 -4,-803 1253,-803 1253,4 -4,4"/>
<g id="clust1" class="cluster">
<title>cluster_root</title>
<g id="a_clust1"><a xlink:title="eventq_index=0&#10;full_system=false&#10;sim_quantum=0&#10;time_sync_enable=false&#10;time_sync_period=100000000000&#10;time_sync_spin_threshold=100000000">
<path fill="#bab6ae" stroke="#000000" d="M20,-8C20,-8 1229,-8 1229,-8 1235,-8 1241,-14 1241,-20 1241,-20 1241,-779 1241,-779 1241,-785 1235,-791 1229,-791 1229,-791 20,-791 20,-791 14,-791 8,-785 8,-779 8,-779 8,-20 8,-20 8,-14 14,-8 20,-8"/>
<text text-anchor="middle" x="624.5" y="-775.8" font-family="Arial" font-size="14.00" fill="#000000">root </text>
<text text-anchor="middle" x="624.5" y="-760.8" font-family="Arial" font-size="14.00" fill="#000000">: Root</text>
</a>
</g>
</g>
<g id="clust2" class="cluster">
<title>cluster_system</title>
<g id="a_clust2"><a xlink:title="boot_osflags=a&#10;cache_line_size=64&#10;clk_domain=system.clk_domain&#10;default_p_state=UNDEFINED&#10;eventq_index=0&#10;exit_on_work_items=false&#10;init_param=0&#10;kernel=&#10;kernel_addr_check=true&#10;kernel_extras=&#10;kvm_vm=Null&#10;load_addr_mask=18446744073709551615&#10;load_offset=0&#10;mem_mode=timing&#10;mem_ranges=0:536870911:0:0:0:0&#10;memories=system.mem_ctrls&#10;mmap_using_noreserve=false&#10;multi_thread=false&#10;num_work_ids=16&#10;p_state_clk_gate_bins=20&#10;p_state_clk_gate_max=1000000000000&#10;p_state_clk_gate_min=1000&#10;pim_kernerls=system.pim_kernerls&#10;pim_type=kernel&#10;power_model=&#10;readfile=&#10;symbolfile=&#10;thermal_components=&#10;thermal_model=Null&#10;work_begin_ckpt_count=0&#10;work_begin_cpu_id_exit=&#45;1&#10;work_begin_exit_count=0&#10;work_cpus_ckpt_count=0&#10;work_end_ckpt_count=0&#10;work_end_exit_count=0&#10;work_item_id=&#45;1">
<path fill="#e4e7eb" stroke="#000000" d="M28,-16C28,-16 1221,-16 1221,-16 1227,-16 1233,-22 1233,-28 1233,-28 1233,-733 1233,-733 1233,-739 1227,-745 1221,-745 1221,-745 28,-745 28,-745 22,-745 16,-739 16,-733 16,-733 16,-28 16,-28 16,-22 22,-16 28,-16"/>
<text text-anchor="middle" x="624.5" y="-729.8" font-family="Arial" font-size="14.00" fill="#000000">system </text>
<text text-anchor="middle" x="624.5" y="-714.8" font-family="Arial" font-size="14.00" fill="#000000">: System</text>
</a>
</g>
</g>
<g id="clust3" class="cluster">
<title>cluster_system_membus</title>
<g id="a_clust3"><a xlink:title="clk_domain=system.clk_domain&#10;default_p_state=UNDEFINED&#10;eventq_index=0&#10;forward_latency=4&#10;frontend_latency=3&#10;p_state_clk_gate_bins=20&#10;p_state_clk_gate_max=1000000000000&#10;p_state_clk_gate_min=1000&#10;point_of_coherency=true&#10;point_of_unification=true&#10;power_model=&#10;response_latency=2&#10;snoop_filter=system.membus.snoop_filter&#10;snoop_response_latency=4&#10;system=system&#10;use_default_range=false&#10;width=16">
<path fill="#6f798c" stroke="#000000" d="M689,-477C689,-477 815,-477 815,-477 821,-477 827,-483 827,-489 827,-489 827,-556 827,-556 827,-562 821,-568 815,-568 815,-568 689,-568 689,-568 683,-568 677,-562 677,-556 677,-556 677,-489 677,-489 677,-483 683,-477 689,-477"/>
<text text-anchor="middle" x="752" y="-552.8" font-family="Arial" font-size="14.00" fill="#000000">membus </text>
<text text-anchor="middle" x="752" y="-537.8" font-family="Arial" font-size="14.00" fill="#000000">: SystemXBar</text>
</a>
</g>
</g>
<g id="clust5" class="cluster">
<title>cluster_system_tol2bus</title>
<g id="a_clust5"><a xlink:title="clk_domain=system.cpu_clk_domain&#10;default_p_state=UNDEFINED&#10;eventq_index=0&#10;forward_latency=0&#10;frontend_latency=1&#10;p_state_clk_gate_bins=20&#10;p_state_clk_gate_max=1000000000000&#10;p_state_clk_gate_min=1000&#10;point_of_coherency=false&#10;point_of_unification=true&#10;power_model=&#10;response_latency=1&#10;snoop_filter=system.tol2bus.snoop_filter&#10;snoop_response_latency=1&#10;system=system&#10;use_default_range=false&#10;width=32">
<path fill="#6f798c" stroke="#000000" d="M705,-24C705,-24 831,-24 831,-24 837,-24 843,-30 843,-36 843,-36 843,-103 843,-103 843,-109 837,-115 831,-115 831,-115 705,-115 705,-115 699,-115 693,-109 693,-103 693,-103 693,-36 693,-36 693,-30 699,-24 705,-24"/>
<text text-anchor="middle" x="768" y="-99.8" font-family="Arial" font-size="14.00" fill="#000000">tol2bus </text>
<text text-anchor="middle" x="768" y="-84.8" font-family="Arial" font-size="14.00" fill="#000000">: L2XBar</text>
</a>
</g>
</g>
<g id="clust9" class="cluster">
<title>cluster_system_l2</title>
<g id="a_clust9"><a xlink:title="addr_ranges=0:18446744073709551615:0:0:0:0&#10;assoc=8&#10;clk_domain=system.cpu_clk_domain&#10;clusivity=mostly_incl&#10;data_latency=20&#10;default_p_state=UNDEFINED&#10;demand_mshr_reserve=1&#10;eventq_index=0&#10;is_read_only=false&#10;max_miss_count=0&#10;mshrs=20&#10;p_state_clk_gate_bins=20&#10;p_state_clk_gate_max=1000000000000&#10;p_state_clk_gate_min=1000&#10;power_model=&#10;prefetch_on_access=false&#10;prefetcher=Null&#10;replacement_policy=system.l2.replacement_policy&#10;response_latency=20&#10;sequential_access=false&#10;size=2097152&#10;system=system&#10;tag_latency=20&#10;tags=system.l2.tags&#10;tgts_per_mshr=12&#10;warmup_percentage=0&#10;write_allocator=Null&#10;write_buffers=8&#10;writeback_clean=false">
<path fill="#bab6ae" stroke="#000000" d="M953,-608C953,-608 1123,-608 1123,-608 1129,-608 1135,-614 1135,-620 1135,-620 1135,-687 1135,-687 1135,-693 1129,-699 1123,-699 1123,-699 953,-699 953,-699 947,-699 941,-693 941,-687 941,-687 941,-620 941,-620 941,-614 947,-608 953,-608"/>
<text text-anchor="middle" x="1038" y="-683.8" font-family="Arial" font-size="14.00" fill="#000000">l2 </text>
<text text-anchor="middle" x="1038" y="-668.8" font-family="Arial" font-size="14.00" fill="#000000">: L2Cache</text>
</a>
</g>
</g>
<g id="clust14" class="cluster">
<title>cluster_system_mem_ctrls</title>
<g id="a_clust14"><a xlink:title="IDD0=0.055&#10;IDD02=0.0&#10;IDD2N=0.032&#10;IDD2N2=0.0&#10;IDD2P0=0.0&#10;IDD2P02=0.0&#10;IDD2P1=0.032&#10;IDD2P12=0.0&#10;IDD3N=0.038&#10;IDD3N2=0.0&#10;IDD3P0=0.0&#10;IDD3P02=0.0&#10;IDD3P1=0.038&#10;IDD3P12=0.0&#10;IDD4R=0.157&#10;IDD4R2=0.0&#10;IDD4W=0.125&#10;IDD4W2=0.0&#10;IDD5=0.235&#10;IDD52=0.0&#10;IDD6=0.02&#10;IDD62=0.0&#10;VDD=1.5&#10;VDD2=0.0&#10;activation_limit=4&#10;addr_mapping=RoRaBaCoCh&#10;bank_groups_per_rank=0&#10;banks_per_rank=8&#10;burst_length=8&#10;channels=1&#10;clk_domain=system.clk_domain&#10;coherence_granularity=64&#10;conf_table_reported=true&#10;cpu_type=TimingSimpleCPU&#10;default_p_state=UNDEFINED&#10;device_bus_width=8&#10;device_rowbuffer_size=1024&#10;device_size=536870912&#10;devices_per_rank=8&#10;dll=true&#10;eventq_index=0&#10;in_addr_map=true&#10;kvm_map=true&#10;max_accesses_per_row=16&#10;mem_sched_policy=frfcfs&#10;min_writes_per_switch=16&#10;null=false&#10;p_state_clk_gate_bins=20&#10;p_state_clk_gate_max=1000000000000&#10;p_state_clk_gate_min=1000&#10;page_policy=open_adaptive&#10;power_model=&#10;qos_masters= &#160;&#160;&#160;&#160;&#160;&#160;&#160;&#160;&#160;&#160;&#160;&#160;&#160;&#160;&#10;qos_policy=Null&#10;qos_priorities=1&#10;qos_priority_escalation=false&#10;qos_q_policy=fifo&#10;qos_syncro_scheduler=false&#10;qos_turnaround_policy=Null&#10;range=0:536870911:6:19:0:0&#10;ranks_per_channel=1&#10;read_buffer_size=32&#10;static_backend_latency=10000&#10;static_frontend_latency=10000&#10;tBURST=5000&#10;tCCD_L=0&#10;tCCD_L_WR=0&#10;tCK=1250&#10;tCL=13750&#10;tCS=2500&#10;tRAS=35000&#10;tRCD=13750&#10;tREFI=7800000&#10;tRFC=260000&#10;tRP=13750&#10;tRRD=6000&#10;tRRD_L=0&#10;tRTP=7500&#10;tRTW=2500&#10;tWR=15000&#10;tWTR=7500&#10;tXAW=30000&#10;tXP=6000&#10;tXPDLL=0&#10;tXS=270000&#10;tXSDLL=0&#10;write_buffer_size=64&#10;write_high_thresh_perc=85&#10;write_low_thresh_perc=50">
<path fill="#5e5958" stroke="#000000" d="M36,-286C36,-286 149,-286 149,-286 155,-286 161,-292 161,-298 161,-298 161,-365 161,-365 161,-371 155,-377 149,-377 149,-377 36,-377 36,-377 30,-377 24,-371 24,-365 24,-365 24,-298 24,-298 24,-292 30,-286 36,-286"/>
<text text-anchor="middle" x="92.5" y="-361.8" font-family="Arial" font-size="14.00" fill="#000000">mem_ctrls </text>
<text text-anchor="middle" x="92.5" y="-346.8" font-family="Arial" font-size="14.00" fill="#000000">: DDR3_1600_8x8</text>
</a>
</g>
</g>
<g id="clust17" class="cluster">
<title>cluster_system_cpu</title>
<g id="a_clust17"><a xlink:title="branchPred=Null&#10;checker=Null&#10;clk_domain=system.cpu_clk_domain&#10;cpu_id=0&#10;default_p_state=UNDEFINED&#10;do_checkpoint_insts=true&#10;do_quiesce=true&#10;do_statistics_insts=true&#10;dtb=system.cpu.dtb&#10;eventq_index=0&#10;function_trace=false&#10;function_trace_start=0&#10;host_id=&#45;1&#10;interrupts=system.cpu.interrupts&#10;isa=system.cpu.isa&#10;ispim=false&#10;itb=system.cpu.itb&#10;max_insts_all_threads=0&#10;max_insts_any_thread=0&#10;max_loads_all_threads=0&#10;max_loads_any_thread=0&#10;numThreads=1&#10;p_state_clk_gate_bins=20&#10;p_state_clk_gate_max=1000000000000&#10;p_state_clk_gate_min=1000&#10;pim_base_addr=536870912&#10;power_gating_on_idle=false&#10;power_model=&#10;profile=0&#10;progress_interval=0&#10;pwr_gating_latency=300&#10;simpoint_start_insts=&#10;socket_id=0&#10;switched_out=false&#10;syscallRetryLatency=10000&#10;system=system&#10;total_host_cpu=1&#10;tracer=system.cpu.tracer&#10;wait_for_remote_gdb=false&#10;workload=system.cpu.workload">
<path fill="#bbc6d9" stroke="#000000" d="M181,-147C181,-147 1023,-147 1023,-147 1029,-147 1035,-153 1035,-159 1035,-159 1035,-457 1035,-457 1035,-463 1029,-469 1023,-469 1023,-469 181,-469 181,-469 175,-469 169,-463 169,-457 169,-457 169,-159 169,-159 169,-153 175,-147 181,-147"/>
<text text-anchor="middle" x="602" y="-453.8" font-family="Arial" font-size="14.00" fill="#000000">cpu </text>
<text text-anchor="middle" x="602" y="-438.8" font-family="Arial" font-size="14.00" fill="#000000">: TimingSimpleCPU</text>
</a>
</g>
</g>
<g id="clust18" class="cluster">
<title>cluster_system_cpu_icache</title>
<g id="a_clust18"><a xlink:title="addr_ranges=0:18446744073709551615:0:0:0:0&#10;assoc=4&#10;clk_domain=system.cpu_clk_domain&#10;clusivity=mostly_incl&#10;data_latency=2&#10;default_p_state=UNDEFINED&#10;demand_mshr_reserve=1&#10;eventq_index=0&#10;is_read_only=true&#10;max_miss_count=0&#10;mshrs=4&#10;p_state_clk_gate_bins=20&#10;p_state_clk_gate_max=1000000000000&#10;p_state_clk_gate_min=1000&#10;power_model=&#10;prefetch_on_access=false&#10;prefetcher=Null&#10;replacement_policy=system.cpu.icache.replacement_policy&#10;response_latency=2&#10;sequential_access=false&#10;size=32768&#10;system=system&#10;tag_latency=2&#10;tags=system.cpu.icache.tags&#10;tgts_per_mshr=20&#10;warmup_percentage=0&#10;write_allocator=Null&#10;write_buffers=8&#10;writeback_clean=true">
<path fill="#bab6ae" stroke="#000000" d="M394,-155C394,-155 564,-155 564,-155 570,-155 576,-161 576,-167 576,-167 576,-234 576,-234 576,-240 570,-246 564,-246 564,-246 394,-246 394,-246 388,-246 382,-240 382,-234 382,-234 382,-167 382,-167 382,-161 388,-155 394,-155"/>
<text text-anchor="middle" x="479" y="-230.8" font-family="Arial" font-size="14.00" fill="#000000">icache </text>
<text text-anchor="middle" x="479" y="-215.8" font-family="Arial" font-size="14.00" fill="#000000">: L1_ICache</text>
</a>
</g>
</g>
<g id="clust23" class="cluster">
<title>cluster_system_cpu_dtb</title>
<g id="a_clust23"><a xlink:title="eventq_index=0&#10;size=64&#10;walker=system.cpu.dtb.walker">
<path fill="#bab6ae" stroke="#000000" d="M862,-278C862,-278 1015,-278 1015,-278 1021,-278 1027,-284 1027,-290 1027,-290 1027,-411 1027,-411 1027,-417 1021,-423 1015,-423 1015,-423 862,-423 862,-423 856,-423 850,-417 850,-411 850,-411 850,-290 850,-290 850,-284 856,-278 862,-278"/>
<text text-anchor="middle" x="938.5" y="-407.8" font-family="Arial" font-size="14.00" fill="#000000">dtb </text>
<text text-anchor="middle" x="938.5" y="-392.8" font-family="Arial" font-size="14.00" fill="#000000">: X86TLB</text>
</a>
</g>
</g>
<g id="clust24" class="cluster">
<title>cluster_system_cpu_dtb_walker</title>
<g id="a_clust24"><a xlink:title="clk_domain=system.cpu_clk_domain&#10;default_p_state=UNDEFINED&#10;eventq_index=0&#10;num_squash_per_cycle=4&#10;p_state_clk_gate_bins=20&#10;p_state_clk_gate_max=1000000000000&#10;p_state_clk_gate_min=1000&#10;power_model=&#10;system=system">
<path fill="#9f9c95" stroke="#000000" d="M870,-286C870,-286 1007,-286 1007,-286 1013,-286 1019,-292 1019,-298 1019,-298 1019,-365 1019,-365 1019,-371 1013,-377 1007,-377 1007,-377 870,-377 870,-377 864,-377 858,-371 858,-365 858,-365 858,-298 858,-298 858,-292 864,-286 870,-286"/>
<text text-anchor="middle" x="938.5" y="-361.8" font-family="Arial" font-size="14.00" fill="#000000">walker </text>
<text text-anchor="middle" x="938.5" y="-346.8" font-family="Arial" font-size="14.00" fill="#000000">: X86PagetableWalker</text>
</a>
</g>
</g>
<g id="clust25" class="cluster">
<title>cluster_system_cpu_interrupts</title>
<g id="a_clust25"><a xlink:title="clk_domain=system.cpu.apic_clk_domain&#10;default_p_state=UNDEFINED&#10;eventq_index=0&#10;int_latency=1000&#10;p_state_clk_gate_bins=20&#10;p_state_clk_gate_max=1000000000000&#10;p_state_clk_gate_min=1000&#10;pim=false&#10;pio_addr=2305843009213693952&#10;pio_latency=100000&#10;power_model=&#10;system=system">
<path fill="#c7a793" stroke="#000000" d="M590,-286C590,-286 830,-286 830,-286 836,-286 842,-292 842,-298 842,-298 842,-365 842,-365 842,-371 836,-377 830,-377 830,-377 590,-377 590,-377 584,-377 578,-371 578,-365 578,-365 578,-298 578,-298 578,-292 584,-286 590,-286"/>
<text text-anchor="middle" x="710" y="-361.8" font-family="Arial" font-size="14.00" fill="#000000">interrupts </text>
<text text-anchor="middle" x="710" y="-346.8" font-family="Arial" font-size="14.00" fill="#000000">: X86LocalApic</text>
</a>
</g>
</g>
<g id="clust26" class="cluster">
<title>cluster_system_cpu_itb_walker_cache</title>
<g id="a_clust26"><a xlink:title="addr_ranges=0:18446744073709551615:0:0:0:0&#10;assoc=2&#10;clk_domain=system.cpu_clk_domain&#10;clusivity=mostly_incl&#10;data_latency=2&#10;default_p_state=UNDEFINED&#10;demand_mshr_reserve=1&#10;eventq_index=0&#10;is_read_only=false&#10;max_miss_count=0&#10;mshrs=10&#10;p_state_clk_gate_bins=20&#10;p_state_clk_gate_max=1000000000000&#10;p_state_clk_gate_min=1000&#10;power_model=&#10;prefetch_on_access=false&#10;prefetcher=Null&#10;replacement_policy=system.cpu.itb_walker_cache.replacement_policy&#10;response_latency=2&#10;sequential_access=false&#10;size=1024&#10;system=system&#10;tag_latency=2&#10;tags=system.cpu.itb_walker_cache.tags&#10;tgts_per_mshr=12&#10;warmup_percentage=0&#10;write_allocator=Null&#10;write_buffers=8&#10;writeback_clean=false">
<path fill="#bab6ae" stroke="#000000" d="M596,-155C596,-155 766,-155 766,-155 772,-155 778,-161 778,-167 778,-167 778,-234 778,-234 778,-240 772,-246 766,-246 766,-246 596,-246 596,-246 590,-246 584,-240 584,-234 584,-234 584,-167 584,-167 584,-161 590,-155 596,-155"/>
<text text-anchor="middle" x="681" y="-230.8" font-family="Arial" font-size="14.00" fill="#000000">itb_walker_cache </text>
<text text-anchor="middle" x="681" y="-215.8" font-family="Arial" font-size="14.00" fill="#000000">: PageTableWalkerCache</text>
</a>
</g>
</g>
<g id="clust30" class="cluster">
<title>cluster_system_cpu_itb</title>
<g id="a_clust30"><a xlink:title="eventq_index=0&#10;size=64&#10;walker=system.cpu.itb.walker">
<path fill="#bab6ae" stroke="#000000" d="M405,-278C405,-278 558,-278 558,-278 564,-278 570,-284 570,-290 570,-290 570,-411 570,-411 570,-417 564,-423 558,-423 558,-423 405,-423 405,-423 399,-423 393,-417 393,-411 393,-411 393,-290 393,-290 393,-284 399,-278 405,-278"/>
<text text-anchor="middle" x="481.5" y="-407.8" font-family="Arial" font-size="14.00" fill="#000000">itb </text>
<text text-anchor="middle" x="481.5" y="-392.8" font-family="Arial" font-size="14.00" fill="#000000">: X86TLB</text>
</a>
</g>
</g>
<g id="clust31" class="cluster">
<title>cluster_system_cpu_itb_walker</title>
<g id="a_clust31"><a xlink:title="clk_domain=system.cpu_clk_domain&#10;default_p_state=UNDEFINED&#10;eventq_index=0&#10;num_squash_per_cycle=4&#10;p_state_clk_gate_bins=20&#10;p_state_clk_gate_max=1000000000000&#10;p_state_clk_gate_min=1000&#10;power_model=&#10;system=system">
<path fill="#9f9c95" stroke="#000000" d="M413,-286C413,-286 550,-286 550,-286 556,-286 562,-292 562,-298 562,-298 562,-365 562,-365 562,-371 556,-377 550,-377 550,-377 413,-377 413,-377 407,-377 401,-371 401,-365 401,-365 401,-298 401,-298 401,-292 407,-286 413,-286"/>
<text text-anchor="middle" x="481.5" y="-361.8" font-family="Arial" font-size="14.00" fill="#000000">walker </text>
<text text-anchor="middle" x="481.5" y="-346.8" font-family="Arial" font-size="14.00" fill="#000000">: X86PagetableWalker</text>
</a>
</g>
</g>
<g id="clust32" class="cluster">
<title>cluster_system_cpu_dtb_walker_cache</title>
<g id="a_clust32"><a xlink:title="addr_ranges=0:18446744073709551615:0:0:0:0&#10;assoc=2&#10;clk_domain=system.cpu_clk_domain&#10;clusivity=mostly_incl&#10;data_latency=2&#10;default_p_state=UNDEFINED&#10;demand_mshr_reserve=1&#10;eventq_index=0&#10;is_read_only=false&#10;max_miss_count=0&#10;mshrs=10&#10;p_state_clk_gate_bins=20&#10;p_state_clk_gate_max=1000000000000&#10;p_state_clk_gate_min=1000&#10;power_model=&#10;prefetch_on_access=false&#10;prefetcher=Null&#10;replacement_policy=system.cpu.dtb_walker_cache.replacement_policy&#10;response_latency=2&#10;sequential_access=false&#10;size=1024&#10;system=system&#10;tag_latency=2&#10;tags=system.cpu.dtb_walker_cache.tags&#10;tgts_per_mshr=12&#10;warmup_percentage=0&#10;write_allocator=Null&#10;write_buffers=8&#10;writeback_clean=false">
<path fill="#bab6ae" stroke="#000000" d="M821,-155C821,-155 991,-155 991,-155 997,-155 1003,-161 1003,-167 1003,-167 1003,-234 1003,-234 1003,-240 997,-246 991,-246 991,-246 821,-246 821,-246 815,-246 809,-240 809,-234 809,-234 809,-167 809,-167 809,-161 815,-155 821,-155"/>
<text text-anchor="middle" x="906" y="-230.8" font-family="Arial" font-size="14.00" fill="#000000">dtb_walker_cache </text>
<text text-anchor="middle" x="906" y="-215.8" font-family="Arial" font-size="14.00" fill="#000000">: PageTableWalkerCache</text>
</a>
</g>
</g>
<g id="clust37" class="cluster">
<title>cluster_system_cpu_dcache</title>
<g id="a_clust37"><a xlink:title="addr_ranges=0:18446744073709551615:0:0:0:0&#10;assoc=4&#10;clk_domain=system.cpu_clk_domain&#10;clusivity=mostly_incl&#10;data_latency=2&#10;default_p_state=UNDEFINED&#10;demand_mshr_reserve=1&#10;eventq_index=0&#10;is_read_only=false&#10;max_miss_count=0&#10;mshrs=4&#10;p_state_clk_gate_bins=20&#10;p_state_clk_gate_max=1000000000000&#10;p_state_clk_gate_min=1000&#10;power_model=&#10;prefetch_on_access=false&#10;prefetcher=Null&#10;replacement_policy=system.cpu.dcache.replacement_policy&#10;response_latency=2&#10;sequential_access=false&#10;size=32768&#10;system=system&#10;tag_latency=2&#10;tags=system.cpu.dcache.tags&#10;tgts_per_mshr=20&#10;warmup_percentage=0&#10;write_allocator=Null&#10;write_buffers=8&#10;writeback_clean=false">
<path fill="#bab6ae" stroke="#000000" d="M192,-155C192,-155 362,-155 362,-155 368,-155 374,-161 374,-167 374,-167 374,-234 374,-234 374,-240 368,-246 362,-246 362,-246 192,-246 192,-246 186,-246 180,-240 180,-234 180,-234 180,-167 180,-167 180,-161 186,-155 192,-155"/>
<text text-anchor="middle" x="277" y="-230.8" font-family="Arial" font-size="14.00" fill="#000000">dcache </text>
<text text-anchor="middle" x="277" y="-215.8" font-family="Arial" font-size="14.00" fill="#000000">: L1_DCache</text>
</a>
</g>
</g>
<g id="clust43" class="cluster">
<title>cluster_system_pim_kernerls</title>
<g id="a_clust43"><a xlink:title="addr_base=536870912&#10;addr_ranges=536870912:536870912:0:0:0:0&#10;clk_domain=system.pim_kernerls.clk_domain&#10;computeEnergy=1e&#45;12&#10;default_p_state=UNDEFINED&#10;eventq_index=0&#10;id=0&#10;input=2&#10;latency=1000&#10;output=1&#10;p_state_clk_gate_bins=20&#10;p_state_clk_gate_max=1000000000000&#10;p_state_clk_gate_min=1000&#10;power_model=">
<path fill="#bab6ae" stroke="#000000" d="M1055,-286C1055,-286 1201,-286 1201,-286 1207,-286 1213,-292 1213,-298 1213,-298 1213,-365 1213,-365 1213,-371 1207,-377 1201,-377 1201,-377 1055,-377 1055,-377 1049,-377 1043,-371 1043,-365 1043,-365 1043,-298 1043,-298 1043,-292 1049,-286 1055,-286"/>
<text text-anchor="middle" x="1128" y="-361.8" font-family="Arial" font-size="14.00" fill="#000000">pim_kernerls </text>
<text text-anchor="middle" x="1128" y="-346.8" font-family="Arial" font-size="14.00" fill="#000000">: PIMAdder</text>
</a>
</g>
</g>
<!-- system_system_port -->
<g id="node1" class="node">
<title>system_system_port</title>
<path fill="#b6b8bc" stroke="#000000" d="M756,-616.5C756,-616.5 828,-616.5 828,-616.5 834,-616.5 840,-622.5 840,-628.5 840,-628.5 840,-640.5 840,-640.5 840,-646.5 834,-652.5 828,-652.5 828,-652.5 756,-652.5 756,-652.5 750,-652.5 744,-646.5 744,-640.5 744,-640.5 744,-628.5 744,-628.5 744,-622.5 750,-616.5 756,-616.5"/>
<text text-anchor="middle" x="792" y="-630.8" font-family="Arial" font-size="14.00" fill="#000000">system_port</text>
</g>
<!-- system_membus_slave -->
<g id="node3" class="node">
<title>system_membus_slave</title>
<path fill="#586070" stroke="#000000" d="M777,-485.5C777,-485.5 807,-485.5 807,-485.5 813,-485.5 819,-491.5 819,-497.5 819,-497.5 819,-509.5 819,-509.5 819,-515.5 813,-521.5 807,-521.5 807,-521.5 777,-521.5 777,-521.5 771,-521.5 765,-515.5 765,-509.5 765,-509.5 765,-497.5 765,-497.5 765,-491.5 771,-485.5 777,-485.5"/>
<text text-anchor="middle" x="792" y="-499.8" font-family="Arial" font-size="14.00" fill="#000000">slave</text>
</g>
<!-- system_system_port&#45;&gt;system_membus_slave -->
<g id="edge1" class="edge">
<title>system_system_port&#45;&gt;system_membus_slave</title>
<path fill="none" stroke="#000000" d="M792,-616.285C792,-594.3856 792,-557.3861 792,-531.7663"/>
<polygon fill="#000000" stroke="#000000" points="795.5001,-531.5603 792,-521.5603 788.5001,-531.5603 795.5001,-531.5603"/>
</g>
<!-- system_membus_master -->
<g id="node2" class="node">
<title>system_membus_master</title>
<path fill="#586070" stroke="#000000" d="M697.5,-485.5C697.5,-485.5 734.5,-485.5 734.5,-485.5 740.5,-485.5 746.5,-491.5 746.5,-497.5 746.5,-497.5 746.5,-509.5 746.5,-509.5 746.5,-515.5 740.5,-521.5 734.5,-521.5 734.5,-521.5 697.5,-521.5 697.5,-521.5 691.5,-521.5 685.5,-515.5 685.5,-509.5 685.5,-509.5 685.5,-497.5 685.5,-497.5 685.5,-491.5 691.5,-485.5 697.5,-485.5"/>
<text text-anchor="middle" x="716" y="-499.8" font-family="Arial" font-size="14.00" fill="#000000">master</text>
</g>
<!-- system_mem_ctrls_port -->
<g id="node8" class="node">
<title>system_mem_ctrls_port</title>
<path fill="#4b4746" stroke="#000000" d="M111,-294.5C111,-294.5 141,-294.5 141,-294.5 147,-294.5 153,-300.5 153,-306.5 153,-306.5 153,-318.5 153,-318.5 153,-324.5 147,-330.5 141,-330.5 141,-330.5 111,-330.5 111,-330.5 105,-330.5 99,-324.5 99,-318.5 99,-318.5 99,-306.5 99,-306.5 99,-300.5 105,-294.5 111,-294.5"/>
<text text-anchor="middle" x="126" y="-308.8" font-family="Arial" font-size="14.00" fill="#000000">port</text>
</g>
<!-- system_membus_master&#45;&gt;system_mem_ctrls_port -->
<g id="edge3" class="edge">
<title>system_membus_master&#45;&gt;system_mem_ctrls_port</title>
<path fill="none" stroke="#000000" d="M685.2891,-502.5746C572.2901,-499.0416 185.1138,-485.7551 165,-469 127.565,-437.816 123.0011,-376.7237 123.9183,-340.7859"/>
<polygon fill="#000000" stroke="#000000" points="127.4274,-340.6389 124.3486,-330.5013 120.4335,-340.3462 127.4274,-340.6389"/>
</g>
<!-- system_cpu_interrupts_int_slave -->
<g id="node14" class="node">
<title>system_cpu_interrupts_int_slave</title>
<path fill="#9f8575" stroke="#000000" d="M670,-294.5C670,-294.5 720,-294.5 720,-294.5 726,-294.5 732,-300.5 732,-306.5 732,-306.5 732,-318.5 732,-318.5 732,-324.5 726,-330.5 720,-330.5 720,-330.5 670,-330.5 670,-330.5 664,-330.5 658,-324.5 658,-318.5 658,-318.5 658,-306.5 658,-306.5 658,-300.5 664,-294.5 670,-294.5"/>
<text text-anchor="middle" x="695" y="-308.8" font-family="Arial" font-size="14.00" fill="#000000">int_slave</text>
</g>
<!-- system_membus_master&#45;&gt;system_cpu_interrupts_int_slave -->
<g id="edge5" class="edge">
<title>system_membus_master&#45;&gt;system_cpu_interrupts_int_slave</title>
<path fill="none" stroke="#000000" d="M713.9864,-485.1861C710.3096,-451.7443 702.4859,-380.586 698.1164,-340.8441"/>
<polygon fill="#000000" stroke="#000000" points="701.5795,-340.316 697.0075,-330.7584 694.6214,-341.0811 701.5795,-340.316"/>
</g>
<!-- system_cpu_interrupts_pio -->
<g id="node16" class="node">
<title>system_cpu_interrupts_pio</title>
<path fill="#9f8575" stroke="#000000" d="M598,-294.5C598,-294.5 628,-294.5 628,-294.5 634,-294.5 640,-300.5 640,-306.5 640,-306.5 640,-318.5 640,-318.5 640,-324.5 634,-330.5 628,-330.5 628,-330.5 598,-330.5 598,-330.5 592,-330.5 586,-324.5 586,-318.5 586,-318.5 586,-306.5 586,-306.5 586,-300.5 592,-294.5 598,-294.5"/>
<text text-anchor="middle" x="613" y="-308.8" font-family="Arial" font-size="14.00" fill="#000000">pio</text>
</g>
<!-- system_membus_master&#45;&gt;system_cpu_interrupts_pio -->
<g id="edge4" class="edge">
<title>system_membus_master&#45;&gt;system_cpu_interrupts_pio</title>
<path fill="none" stroke="#000000" d="M685.4742,-494.3014C672.4403,-488.9061 658.1529,-480.7766 649,-469 619.9767,-431.657 613.6103,-375.0836 612.6178,-341.1641"/>
<polygon fill="#000000" stroke="#000000" points="616.115,-340.9457 612.4625,-331.0004 609.1158,-341.0527 616.115,-340.9457"/>
</g>
<!-- system_pim_kernerls_mem_port -->
<g id="node25" class="node">
<title>system_pim_kernerls_mem_port</title>
<path fill="#94918b" stroke="#000000" d="M1063,-294.5C1063,-294.5 1121,-294.5 1121,-294.5 1127,-294.5 1133,-300.5 1133,-306.5 1133,-306.5 1133,-318.5 1133,-318.5 1133,-324.5 1127,-330.5 1121,-330.5 1121,-330.5 1063,-330.5 1063,-330.5 1057,-330.5 1051,-324.5 1051,-318.5 1051,-318.5 1051,-306.5 1051,-306.5 1051,-300.5 1057,-294.5 1063,-294.5"/>
<text text-anchor="middle" x="1092" y="-308.8" font-family="Arial" font-size="14.00" fill="#000000">mem_port</text>
</g>
<!-- system_membus_master&#45;&gt;system_pim_kernerls_mem_port -->
<g id="edge2" class="edge">
<title>system_membus_master&#45;&gt;system_pim_kernerls_mem_port</title>
<path fill="none" stroke="#000000" d="M738.5678,-485.4623C743.9894,-482.0305 749.9661,-478.9164 756,-477 784.2875,-468.0156 998.3831,-485.5805 1023,-469 1066.1499,-439.9367 1082.556,-377.3509 1088.6137,-340.741"/>
<polygon fill="#000000" stroke="#000000" points="1092.0952,-341.1253 1090.1209,-330.7161 1085.173,-340.0845 1092.0952,-341.1253"/>
</g>
<!-- system_tol2bus_master -->
<g id="node4" class="node">
<title>system_tol2bus_master</title>
<path fill="#586070" stroke="#000000" d="M785.5,-32.5C785.5,-32.5 822.5,-32.5 822.5,-32.5 828.5,-32.5 834.5,-38.5 834.5,-44.5 834.5,-44.5 834.5,-56.5 834.5,-56.5 834.5,-62.5 828.5,-68.5 822.5,-68.5 822.5,-68.5 785.5,-68.5 785.5,-68.5 779.5,-68.5 773.5,-62.5 773.5,-56.5 773.5,-56.5 773.5,-44.5 773.5,-44.5 773.5,-38.5 779.5,-32.5 785.5,-32.5"/>
<text text-anchor="middle" x="804" y="-46.8" font-family="Arial" font-size="14.00" fill="#000000">master</text>
</g>
<!-- system_l2_cpu_side -->
<g id="node7" class="node">
<title>system_l2_cpu_side</title>
<path fill="#94918b" stroke="#000000" d="M1063,-616.5C1063,-616.5 1115,-616.5 1115,-616.5 1121,-616.5 1127,-622.5 1127,-628.5 1127,-628.5 1127,-640.5 1127,-640.5 1127,-646.5 1121,-652.5 1115,-652.5 1115,-652.5 1063,-652.5 1063,-652.5 1057,-652.5 1051,-646.5 1051,-640.5 1051,-640.5 1051,-628.5 1051,-628.5 1051,-622.5 1057,-616.5 1063,-616.5"/>
<text text-anchor="middle" x="1089" y="-630.8" font-family="Arial" font-size="14.00" fill="#000000">cpu_side</text>
</g>
<!-- system_tol2bus_master&#45;&gt;system_l2_cpu_side -->
<g id="edge6" class="edge">
<title>system_tol2bus_master&#45;&gt;system_l2_cpu_side</title>
<path fill="none" stroke="#000000" d="M834.5648,-56.0281C915.5006,-72.5325 1134.7924,-129.8268 1217,-278 1258.1833,-352.2298 1244.4401,-388.6684 1217,-469 1197.3542,-526.5137 1148.7093,-579.5454 1117.3651,-609.3849"/>
<polygon fill="#000000" stroke="#000000" points="1114.7118,-607.0741 1109.7972,-616.4601 1119.4923,-612.1875 1114.7118,-607.0741"/>
</g>
<!-- system_tol2bus_slave -->
<g id="node5" class="node">
<title>system_tol2bus_slave</title>
<path fill="#586070" stroke="#000000" d="M713,-32.5C713,-32.5 743,-32.5 743,-32.5 749,-32.5 755,-38.5 755,-44.5 755,-44.5 755,-56.5 755,-56.5 755,-62.5 749,-68.5 743,-68.5 743,-68.5 713,-68.5 713,-68.5 707,-68.5 701,-62.5 701,-56.5 701,-56.5 701,-44.5 701,-44.5 701,-38.5 707,-32.5 713,-32.5"/>
<text text-anchor="middle" x="728" y="-46.8" font-family="Arial" font-size="14.00" fill="#000000">slave</text>
</g>
<!-- system_l2_mem_side -->
<g id="node6" class="node">
<title>system_l2_mem_side</title>
<path fill="#94918b" stroke="#000000" d="M961,-616.5C961,-616.5 1021,-616.5 1021,-616.5 1027,-616.5 1033,-622.5 1033,-628.5 1033,-628.5 1033,-640.5 1033,-640.5 1033,-646.5 1027,-652.5 1021,-652.5 1021,-652.5 961,-652.5 961,-652.5 955,-652.5 949,-646.5 949,-640.5 949,-640.5 949,-628.5 949,-628.5 949,-622.5 955,-616.5 961,-616.5"/>
<text text-anchor="middle" x="991" y="-630.8" font-family="Arial" font-size="14.00" fill="#000000">mem_side</text>
</g>
<!-- system_l2_mem_side&#45;&gt;system_membus_slave -->
<g id="edge7" class="edge">
<title>system_l2_mem_side&#45;&gt;system_membus_slave</title>
<path fill="none" stroke="#000000" d="M963.3299,-616.285C927.8843,-592.9515 866.398,-552.4755 827.5268,-526.887"/>
<polygon fill="#000000" stroke="#000000" points="829.3936,-523.9256 819.1165,-521.3505 825.5446,-529.7725 829.3936,-523.9256"/>
</g>
<!-- system_cpu_icache_port -->
<g id="node9" class="node">
<title>system_cpu_icache_port</title>
<path fill="#959ead" stroke="#000000" d="M305,-294.5C305,-294.5 373,-294.5 373,-294.5 379,-294.5 385,-300.5 385,-306.5 385,-306.5 385,-318.5 385,-318.5 385,-324.5 379,-330.5 373,-330.5 373,-330.5 305,-330.5 305,-330.5 299,-330.5 293,-324.5 293,-318.5 293,-318.5 293,-306.5 293,-306.5 293,-300.5 299,-294.5 305,-294.5"/>
<text text-anchor="middle" x="339" y="-308.8" font-family="Arial" font-size="14.00" fill="#000000">icache_port</text>
</g>
<!-- system_cpu_icache_cpu_side -->
<g id="node12" class="node">
<title>system_cpu_icache_cpu_side</title>
<path fill="#94918b" stroke="#000000" d="M402,-163.5C402,-163.5 454,-163.5 454,-163.5 460,-163.5 466,-169.5 466,-175.5 466,-175.5 466,-187.5 466,-187.5 466,-193.5 460,-199.5 454,-199.5 454,-199.5 402,-199.5 402,-199.5 396,-199.5 390,-193.5 390,-187.5 390,-187.5 390,-175.5 390,-175.5 390,-169.5 396,-163.5 402,-163.5"/>
<text text-anchor="middle" x="428" y="-177.8" font-family="Arial" font-size="14.00" fill="#000000">cpu_side</text>
</g>
<!-- system_cpu_icache_port&#45;&gt;system_cpu_icache_cpu_side -->
<g id="edge8" class="edge">
<title>system_cpu_icache_port&#45;&gt;system_cpu_icache_cpu_side</title>
<path fill="none" stroke="#000000" d="M351.3751,-294.285C366.5854,-271.8968 392.5177,-233.7268 409.95,-208.068"/>
<polygon fill="#000000" stroke="#000000" points="413.0054,-209.7988 415.73,-199.5603 407.2153,-205.865 413.0054,-209.7988"/>
</g>
<!-- system_cpu_dcache_port -->
<g id="node10" class="node">
<title>system_cpu_dcache_port</title>
<path fill="#959ead" stroke="#000000" d="M189,-294.5C189,-294.5 263,-294.5 263,-294.5 269,-294.5 275,-300.5 275,-306.5 275,-306.5 275,-318.5 275,-318.5 275,-324.5 269,-330.5 263,-330.5 263,-330.5 189,-330.5 189,-330.5 183,-330.5 177,-324.5 177,-318.5 177,-318.5 177,-306.5 177,-306.5 177,-300.5 183,-294.5 189,-294.5"/>
<text text-anchor="middle" x="226" y="-308.8" font-family="Arial" font-size="14.00" fill="#000000">dcache_port</text>
</g>
<!-- system_cpu_dcache_cpu_side -->
<g id="node23" class="node">
<title>system_cpu_dcache_cpu_side</title>
<path fill="#94918b" stroke="#000000" d="M200,-163.5C200,-163.5 252,-163.5 252,-163.5 258,-163.5 264,-169.5 264,-175.5 264,-175.5 264,-187.5 264,-187.5 264,-193.5 258,-199.5 252,-199.5 252,-199.5 200,-199.5 200,-199.5 194,-199.5 188,-193.5 188,-187.5 188,-187.5 188,-175.5 188,-175.5 188,-169.5 194,-163.5 200,-163.5"/>
<text text-anchor="middle" x="226" y="-177.8" font-family="Arial" font-size="14.00" fill="#000000">cpu_side</text>
</g>
<!-- system_cpu_dcache_port&#45;&gt;system_cpu_dcache_cpu_side -->
<g id="edge9" class="edge">
<title>system_cpu_dcache_port&#45;&gt;system_cpu_dcache_cpu_side</title>
<path fill="none" stroke="#000000" d="M226,-294.285C226,-272.3856 226,-235.3861 226,-209.7663"/>
<polygon fill="#000000" stroke="#000000" points="229.5001,-209.5603 226,-199.5603 222.5001,-209.5603 229.5001,-209.5603"/>
</g>
<!-- system_cpu_icache_mem_side -->
<g id="node11" class="node">
<title>system_cpu_icache_mem_side</title>
<path fill="#94918b" stroke="#000000" d="M496,-163.5C496,-163.5 556,-163.5 556,-163.5 562,-163.5 568,-169.5 568,-175.5 568,-175.5 568,-187.5 568,-187.5 568,-193.5 562,-199.5 556,-199.5 556,-199.5 496,-199.5 496,-199.5 490,-199.5 484,-193.5 484,-187.5 484,-187.5 484,-175.5 484,-175.5 484,-169.5 490,-163.5 496,-163.5"/>
<text text-anchor="middle" x="526" y="-177.8" font-family="Arial" font-size="14.00" fill="#000000">mem_side</text>
</g>
<!-- system_cpu_icache_mem_side&#45;&gt;system_tol2bus_slave -->
<g id="edge10" class="edge">
<title>system_cpu_icache_mem_side&#45;&gt;system_tol2bus_slave</title>
<path fill="none" stroke="#000000" d="M554.0872,-163.285C590.1679,-139.8861 652.8303,-99.2487 692.2686,-73.6723"/>
<polygon fill="#000000" stroke="#000000" points="694.311,-76.5194 700.7967,-68.1417 690.5022,-70.6463 694.311,-76.5194"/>
</g>
<!-- system_cpu_dtb_walker_port -->
<g id="node13" class="node">
<title>system_cpu_dtb_walker_port</title>
<path fill="#7f7c77" stroke="#000000" d="M878,-294.5C878,-294.5 908,-294.5 908,-294.5 914,-294.5 920,-300.5 920,-306.5 920,-306.5 920,-318.5 920,-318.5 920,-324.5 914,-330.5 908,-330.5 908,-330.5 878,-330.5 878,-330.5 872,-330.5 866,-324.5 866,-318.5 866,-318.5 866,-306.5 866,-306.5 866,-300.5 872,-294.5 878,-294.5"/>
<text text-anchor="middle" x="893" y="-308.8" font-family="Arial" font-size="14.00" fill="#000000">port</text>
</g>
<!-- system_cpu_dtb_walker_cache_cpu_side -->
<g id="node21" class="node">
<title>system_cpu_dtb_walker_cache_cpu_side</title>
<path fill="#94918b" stroke="#000000" d="M829,-163.5C829,-163.5 881,-163.5 881,-163.5 887,-163.5 893,-169.5 893,-175.5 893,-175.5 893,-187.5 893,-187.5 893,-193.5 887,-199.5 881,-199.5 881,-199.5 829,-199.5 829,-199.5 823,-199.5 817,-193.5 817,-187.5 817,-187.5 817,-175.5 817,-175.5 817,-169.5 823,-163.5 829,-163.5"/>
<text text-anchor="middle" x="855" y="-177.8" font-family="Arial" font-size="14.00" fill="#000000">cpu_side</text>
</g>
<!-- system_cpu_dtb_walker_port&#45;&gt;system_cpu_dtb_walker_cache_cpu_side -->
<g id="edge11" class="edge">
<title>system_cpu_dtb_walker_port&#45;&gt;system_cpu_dtb_walker_cache_cpu_side</title>
<path fill="none" stroke="#000000" d="M887.7163,-294.285C881.3354,-272.2878 870.5352,-235.0554 863.1,-209.4238"/>
<polygon fill="#000000" stroke="#000000" points="866.3863,-208.1893 860.2389,-199.5603 859.6634,-210.1395 866.3863,-208.1893"/>
</g>
<!-- system_cpu_interrupts_int_master -->
<g id="node15" class="node">
<title>system_cpu_interrupts_int_master</title>
<path fill="#9f8575" stroke="#000000" d="M762,-294.5C762,-294.5 822,-294.5 822,-294.5 828,-294.5 834,-300.5 834,-306.5 834,-306.5 834,-318.5 834,-318.5 834,-324.5 828,-330.5 822,-330.5 822,-330.5 762,-330.5 762,-330.5 756,-330.5 750,-324.5 750,-318.5 750,-318.5 750,-306.5 750,-306.5 750,-300.5 756,-294.5 762,-294.5"/>
<text text-anchor="middle" x="792" y="-308.8" font-family="Arial" font-size="14.00" fill="#000000">int_master</text>
</g>
<!-- system_cpu_interrupts_int_master&#45;&gt;system_membus_slave -->
<g id="edge12" class="edge">
<title>system_cpu_interrupts_int_master&#45;&gt;system_membus_slave</title>
<path fill="none" stroke="#000000" d="M792,-330.7584C792,-364.1585 792,-435.3133 792,-475.09"/>
<polygon fill="#000000" stroke="#000000" points="788.5001,-475.1861 792,-485.1861 795.5001,-475.1862 788.5001,-475.1861"/>
</g>
<!-- system_cpu_itb_walker_cache_mem_side -->
<g id="node17" class="node">
<title>system_cpu_itb_walker_cache_mem_side</title>
<path fill="#94918b" stroke="#000000" d="M698,-163.5C698,-163.5 758,-163.5 758,-163.5 764,-163.5 770,-169.5 770,-175.5 770,-175.5 770,-187.5 770,-187.5 770,-193.5 764,-199.5 758,-199.5 758,-199.5 698,-199.5 698,-199.5 692,-199.5 686,-193.5 686,-187.5 686,-187.5 686,-175.5 686,-175.5 686,-169.5 692,-163.5 698,-163.5"/>
<text text-anchor="middle" x="728" y="-177.8" font-family="Arial" font-size="14.00" fill="#000000">mem_side</text>
</g>
<!-- system_cpu_itb_walker_cache_mem_side&#45;&gt;system_tol2bus_slave -->
<g id="edge13" class="edge">
<title>system_cpu_itb_walker_cache_mem_side&#45;&gt;system_tol2bus_slave</title>
<path fill="none" stroke="#000000" d="M728,-163.285C728,-141.3856 728,-104.3861 728,-78.7663"/>
<polygon fill="#000000" stroke="#000000" points="731.5001,-78.5603 728,-68.5603 724.5001,-78.5603 731.5001,-78.5603"/>
</g>
<!-- system_cpu_itb_walker_cache_cpu_side -->
<g id="node18" class="node">
<title>system_cpu_itb_walker_cache_cpu_side</title>
<path fill="#94918b" stroke="#000000" d="M604,-163.5C604,-163.5 656,-163.5 656,-163.5 662,-163.5 668,-169.5 668,-175.5 668,-175.5 668,-187.5 668,-187.5 668,-193.5 662,-199.5 656,-199.5 656,-199.5 604,-199.5 604,-199.5 598,-199.5 592,-193.5 592,-187.5 592,-187.5 592,-175.5 592,-175.5 592,-169.5 598,-163.5 604,-163.5"/>
<text text-anchor="middle" x="630" y="-177.8" font-family="Arial" font-size="14.00" fill="#000000">cpu_side</text>
</g>
<!-- system_cpu_itb_walker_port -->
<g id="node19" class="node">
<title>system_cpu_itb_walker_port</title>
<path fill="#7f7c77" stroke="#000000" d="M512,-294.5C512,-294.5 542,-294.5 542,-294.5 548,-294.5 554,-300.5 554,-306.5 554,-306.5 554,-318.5 554,-318.5 554,-324.5 548,-330.5 542,-330.5 542,-330.5 512,-330.5 512,-330.5 506,-330.5 500,-324.5 500,-318.5 500,-318.5 500,-306.5 500,-306.5 500,-300.5 506,-294.5 512,-294.5"/>
<text text-anchor="middle" x="527" y="-308.8" font-family="Arial" font-size="14.00" fill="#000000">port</text>
</g>
<!-- system_cpu_itb_walker_port&#45;&gt;system_cpu_itb_walker_cache_cpu_side -->
<g id="edge14" class="edge">
<title>system_cpu_itb_walker_port&#45;&gt;system_cpu_itb_walker_cache_cpu_side</title>
<path fill="none" stroke="#000000" d="M541.4625,-294.4885C552.1548,-281.1397 567.0448,-262.4817 580,-246 589.8639,-233.451 600.7292,-219.4559 609.8042,-207.7177"/>
<polygon fill="#000000" stroke="#000000" points="612.7139,-209.6762 616.0559,-199.6222 607.1736,-205.3977 612.7139,-209.6762"/>
</g>
<!-- system_cpu_dtb_walker_cache_mem_side -->
<g id="node20" class="node">
<title>system_cpu_dtb_walker_cache_mem_side</title>
<path fill="#94918b" stroke="#000000" d="M923,-163.5C923,-163.5 983,-163.5 983,-163.5 989,-163.5 995,-169.5 995,-175.5 995,-175.5 995,-187.5 995,-187.5 995,-193.5 989,-199.5 983,-199.5 983,-199.5 923,-199.5 923,-199.5 917,-199.5 911,-193.5 911,-187.5 911,-187.5 911,-175.5 911,-175.5 911,-169.5 917,-163.5 923,-163.5"/>
<text text-anchor="middle" x="953" y="-177.8" font-family="Arial" font-size="14.00" fill="#000000">mem_side</text>
</g>
<!-- system_cpu_dtb_walker_cache_mem_side&#45;&gt;system_tol2bus_slave -->
<g id="edge15" class="edge">
<title>system_cpu_dtb_walker_cache_mem_side&#45;&gt;system_tol2bus_slave</title>
<path fill="none" stroke="#000000" d="M930.1778,-163.45C921.7194,-157.4826 911.7948,-151.2817 902,-147 844.7072,-121.9548 815.1637,-152.3274 765,-115 752.6204,-105.7882 743.7348,-91.1168 737.7794,-78.0926"/>
<polygon fill="#000000" stroke="#000000" points="740.8818,-76.4402 733.787,-68.5716 734.4264,-79.1472 740.8818,-76.4402"/>
</g>
<!-- system_cpu_dcache_mem_side -->
<g id="node22" class="node">
<title>system_cpu_dcache_mem_side</title>
<path fill="#94918b" stroke="#000000" d="M294,-163.5C294,-163.5 354,-163.5 354,-163.5 360,-163.5 366,-169.5 366,-175.5 366,-175.5 366,-187.5 366,-187.5 366,-193.5 360,-199.5 354,-199.5 354,-199.5 294,-199.5 294,-199.5 288,-199.5 282,-193.5 282,-187.5 282,-187.5 282,-175.5 282,-175.5 282,-169.5 288,-163.5 294,-163.5"/>
<text text-anchor="middle" x="324" y="-177.8" font-family="Arial" font-size="14.00" fill="#000000">mem_side</text>
</g>
<!-- system_cpu_dcache_mem_side&#45;&gt;system_tol2bus_slave -->
<g id="edge16" class="edge">
<title>system_cpu_dcache_mem_side&#45;&gt;system_tol2bus_slave</title>
<path fill="none" stroke="#000000" d="M348.936,-163.3629C357.7917,-157.5283 368.0396,-151.4334 378,-147 486.5501,-98.6836 625.0127,-69.1993 690.4784,-57.0108"/>
<polygon fill="#000000" stroke="#000000" points="691.5096,-60.3803 700.7154,-55.1358 690.2484,-53.4948 691.5096,-60.3803"/>
</g>
<!-- system_pim_kernerls_port -->
<g id="node24" class="node">
<title>system_pim_kernerls_port</title>
<path fill="#94918b" stroke="#000000" d="M1163,-294.5C1163,-294.5 1193,-294.5 1193,-294.5 1199,-294.5 1205,-300.5 1205,-306.5 1205,-306.5 1205,-318.5 1205,-318.5 1205,-324.5 1199,-330.5 1193,-330.5 1193,-330.5 1163,-330.5 1163,-330.5 1157,-330.5 1151,-324.5 1151,-318.5 1151,-318.5 1151,-306.5 1151,-306.5 1151,-300.5 1157,-294.5 1163,-294.5"/>
<text text-anchor="middle" x="1178" y="-308.8" font-family="Arial" font-size="14.00" fill="#000000">port</text>
</g>
<!-- system_pim_kernerls_port&#45;&gt;system_membus_slave -->
<g id="edge17" class="edge">
<title>system_pim_kernerls_port&#45;&gt;system_membus_slave</title>
<path fill="none" stroke="#000000" d="M1179.9298,-330.5823C1182.3446,-363.6571 1182.0867,-433.7365 1142,-469 1118.8678,-489.349 914.6566,-499.0561 829.2723,-502.253"/>
<polygon fill="#000000" stroke="#000000" points="829.0961,-498.757 819.2304,-502.6193 829.3513,-505.7523 829.0961,-498.757"/>
</g>
</g>
</svg>
